<svg id="svg" version="1.1" xmlns="http://www.w3.org/2000/svg" xmlns:xlink="http://www.w3.org/1999/xlink" width="400" height="301.74081237911025" viewBox="0, 0, 400,301.74081237911025"><g id="svgg"><path id="path0" d="M168.055 112.724 C 166.685 113.231,165.852 113.938,165.177 115.169 C 164.723 115.996,164.679 119.129,164.679 150.943 C 164.679 190.681,164.462 187.481,167.251 188.906 L 168.581 189.585 200.592 189.583 C 237.396 189.581,235.615 189.739,236.709 186.377 C 237.271 184.648,237.457 148.379,236.914 146.294 C 236.161 143.402,235.266 143.216,220.350 142.850 C 207.659 142.538,208.906 144.102,208.906 128.488 C 208.906 112.103,209.074 112.461,201.358 112.456 C 193.180 112.450,193.407 112.019,193.209 127.903 C 193.018 143.117,193.244 142.606,186.717 142.619 C 180.210 142.632,180.416 143.106,180.226 127.712 C 180.057 113.999,180.104 114.272,177.712 112.985 C 176.405 112.283,169.738 112.102,168.055 112.724 M220.140 160.695 C 221.447 161.892,221.746 163.312,221.505 167.171 C 221.244 171.363,220.004 172.377,215.140 172.377 C 209.827 172.377,208.906 171.393,208.906 165.715 L 208.906 162.042 210.078 160.870 L 211.250 159.698 215.151 159.698 L 219.052 159.698 220.140 160.695 " stroke="none" fill="#fcfbfb" fill-rule="evenodd"></path><path id="path1" d="M197.969 62.962 C 197.852 63.079,196.688 63.346,195.383 63.555 C 194.078 63.764,192.235 64.289,191.288 64.722 C 190.342 65.155,189.435 65.509,189.274 65.509 C 189.113 65.509,188.981 65.615,188.981 65.744 C 188.981 65.872,188.371 66.246,187.626 66.574 C 186.880 66.902,186.269 67.255,186.267 67.360 C 186.265 67.464,185.857 67.718,185.358 67.925 C 184.860 68.131,184.452 68.385,184.452 68.489 C 184.451 68.594,183.840 68.930,183.093 69.237 C 182.347 69.544,181.736 69.891,181.736 70.007 C 181.736 70.123,181.260 70.390,180.679 70.600 C 180.098 70.811,179.623 71.089,179.623 71.219 C 179.623 71.350,179.011 71.708,178.264 72.016 C 177.517 72.325,176.906 72.671,176.906 72.787 C 176.906 72.903,176.498 73.140,176.000 73.313 C 175.502 73.487,175.094 73.745,175.094 73.886 C 175.094 74.027,174.620 74.314,174.041 74.524 C 173.462 74.733,172.816 75.066,172.607 75.264 C 172.398 75.461,171.751 75.863,171.170 76.157 C 170.589 76.451,169.570 77.023,168.906 77.427 C 168.242 77.832,167.121 78.436,166.415 78.769 C 165.709 79.102,165.132 79.505,165.132 79.663 C 165.132 79.822,164.734 80.039,164.247 80.146 C 163.761 80.253,163.194 80.544,162.988 80.792 C 162.782 81.040,162.196 81.434,161.684 81.667 C 161.173 81.901,160.211 82.435,159.547 82.854 C 158.192 83.709,156.456 84.686,154.693 85.585 C 154.042 85.917,153.442 86.265,153.358 86.357 C 153.275 86.450,152.257 87.050,151.094 87.690 C 149.932 88.330,148.913 88.940,148.830 89.046 C 148.747 89.152,148.204 89.475,147.623 89.764 C 147.042 90.053,146.158 90.533,145.660 90.831 C 145.162 91.128,144.143 91.717,143.396 92.139 C 142.649 92.561,141.223 93.374,140.226 93.946 C 139.230 94.518,138.075 95.180,137.660 95.417 C 137.245 95.655,136.838 95.917,136.755 96.000 C 136.672 96.083,136.060 96.422,135.396 96.754 C 134.732 97.086,134.009 97.527,133.790 97.735 C 133.570 97.943,133.204 98.113,132.975 98.113 C 132.746 98.113,132.450 98.291,132.317 98.508 C 132.184 98.726,131.624 99.086,131.073 99.309 C 129.989 99.747,124.377 105.143,124.377 105.748 C 124.377 105.851,124.048 106.421,123.644 107.015 C 123.241 107.610,122.817 108.533,122.701 109.067 C 122.585 109.601,122.384 110.106,122.253 110.190 C 122.123 110.273,121.854 111.224,121.655 112.303 C 121.456 113.382,121.172 114.500,121.024 114.788 C 120.668 115.481,120.668 186.406,121.024 187.098 C 121.172 187.387,121.455 188.506,121.653 189.585 C 121.850 190.664,122.137 191.592,122.289 191.648 C 122.441 191.703,122.566 191.980,122.566 192.263 C 122.566 192.906,124.098 195.876,124.981 196.944 C 126.287 198.524,129.168 201.358,129.467 201.358 C 129.657 201.358,129.811 201.488,129.811 201.646 C 129.811 201.804,130.321 202.173,130.943 202.465 C 131.566 202.757,132.255 203.171,132.474 203.385 C 132.694 203.599,132.990 203.774,133.132 203.774 C 133.274 203.774,133.570 203.944,133.790 204.153 C 134.009 204.362,134.764 204.803,135.468 205.134 C 136.172 205.465,136.749 205.812,136.751 205.906 C 136.753 205.999,137.230 206.263,137.811 206.491 C 138.392 206.719,138.868 207.006,138.868 207.130 C 138.868 207.254,139.143 207.443,139.478 207.549 C 139.814 207.656,140.935 208.273,141.969 208.920 C 143.003 209.567,144.325 210.331,144.906 210.617 C 145.487 210.904,146.030 211.227,146.113 211.336 C 146.196 211.445,146.808 211.784,147.472 212.091 C 148.136 212.397,148.747 212.736,148.830 212.843 C 148.999 213.062,150.168 213.712,152.051 214.635 C 152.744 214.975,153.355 215.353,153.410 215.475 C 153.465 215.598,154.041 215.970,154.692 216.302 C 157.379 217.674,157.998 218.030,158.406 218.439 C 158.642 218.675,159.020 218.868,159.245 218.868 C 159.471 218.868,159.848 219.061,160.084 219.297 C 160.493 219.706,161.112 220.062,163.799 221.434 C 164.449 221.766,165.030 222.151,165.090 222.289 C 165.150 222.428,165.761 222.807,166.449 223.132 C 167.136 223.458,168.242 224.055,168.906 224.459 C 169.570 224.864,170.589 225.435,171.170 225.729 C 171.751 226.024,172.398 226.426,172.607 226.623 C 172.816 226.821,173.462 227.153,174.041 227.363 C 174.620 227.573,175.094 227.860,175.094 228.001 C 175.094 228.142,175.502 228.400,176.000 228.574 C 176.498 228.747,176.906 228.984,176.906 229.100 C 176.906 229.215,177.517 229.562,178.264 229.870 C 179.011 230.179,179.623 230.537,179.623 230.667 C 179.623 230.798,180.098 231.076,180.679 231.286 C 181.260 231.497,181.736 231.764,181.736 231.880 C 181.736 231.996,182.347 232.342,183.093 232.649 C 183.840 232.956,184.451 233.293,184.452 233.397 C 184.452 233.502,184.860 233.756,185.358 233.962 C 185.857 234.169,186.265 234.423,186.267 234.527 C 186.269 234.632,186.880 234.985,187.626 235.313 C 188.371 235.641,188.981 236.014,188.981 236.143 C 188.981 236.272,189.113 236.377,189.274 236.377 C 189.435 236.377,190.342 236.732,191.288 237.165 C 196.127 239.378,203.873 239.378,208.712 237.165 C 209.658 236.732,210.565 236.377,210.726 236.377 C 210.887 236.377,211.019 236.272,211.019 236.143 C 211.019 236.014,211.629 235.641,212.374 235.313 C 213.120 234.985,213.731 234.632,213.733 234.527 C 213.735 234.423,214.143 234.169,214.642 233.962 C 215.140 233.756,215.548 233.502,215.548 233.397 C 215.549 233.293,216.160 232.956,216.907 232.649 C 217.653 232.342,218.264 231.994,218.264 231.875 C 218.264 231.757,218.740 231.473,219.321 231.245 C 219.902 231.017,220.377 230.741,220.377 230.631 C 220.377 230.521,220.989 230.179,221.736 229.870 C 222.483 229.562,223.094 229.215,223.094 229.100 C 223.094 228.984,223.502 228.747,224.000 228.574 C 224.498 228.400,224.906 228.137,224.906 227.989 C 224.906 227.840,225.456 227.538,226.128 227.316 C 226.800 227.094,227.446 226.767,227.562 226.588 C 227.678 226.410,228.249 226.024,228.830 225.729 C 229.411 225.435,230.430 224.864,231.094 224.459 C 231.758 224.055,232.879 223.451,233.585 223.118 C 234.291 222.785,234.868 222.382,234.868 222.223 C 234.868 222.065,235.266 221.847,235.753 221.740 C 236.239 221.634,236.801 221.349,237.000 221.109 C 237.200 220.869,237.922 220.399,238.606 220.065 C 240.062 219.354,241.148 218.739,241.892 218.205 C 242.454 217.801,243.357 217.298,245.308 216.302 C 245.958 215.970,246.558 215.622,246.642 215.529 C 246.725 215.437,247.743 214.837,248.906 214.197 C 250.068 213.557,251.087 212.946,251.170 212.840 C 251.253 212.734,251.864 212.397,252.528 212.091 C 253.192 211.784,253.804 211.439,253.887 211.323 C 253.970 211.207,255.057 210.582,256.302 209.933 C 257.547 209.285,258.702 208.648,258.868 208.518 C 259.521 208.007,262.730 206.189,262.980 206.189 C 263.126 206.189,263.247 206.087,263.248 205.962 C 263.250 205.838,263.861 205.468,264.607 205.140 C 265.352 204.812,265.962 204.452,265.962 204.339 C 265.962 204.227,266.370 203.992,266.868 203.819 C 267.366 203.645,267.774 203.387,267.774 203.246 C 267.774 203.105,268.228 202.825,268.783 202.624 C 269.636 202.316,273.887 198.463,274.874 197.103 C 276.207 195.266,277.151 193.566,277.311 192.711 C 277.416 192.154,277.603 191.698,277.728 191.698 C 277.853 191.698,278.119 190.849,278.320 189.811 C 278.521 188.774,278.811 187.689,278.965 187.400 C 279.341 186.697,279.341 115.190,278.965 114.486 C 278.811 114.198,278.521 113.113,278.320 112.075 C 278.119 111.038,277.838 110.189,277.695 110.189 C 277.551 110.189,277.431 109.951,277.427 109.660 C 277.421 109.164,276.674 107.488,275.841 106.102 C 274.721 104.238,270.090 99.735,268.822 99.277 C 268.245 99.068,267.774 98.805,267.774 98.693 C 267.774 98.580,267.366 98.320,266.868 98.113 C 266.370 97.907,265.961 97.653,265.959 97.548 C 265.957 97.444,265.380 97.089,264.676 96.759 C 263.972 96.430,263.328 96.090,263.245 96.005 C 263.074 95.829,262.019 95.205,260.679 94.488 C 260.181 94.222,258.983 93.536,258.017 92.964 C 255.224 91.312,253.514 90.343,252.377 89.771 C 251.796 89.478,251.253 89.152,251.170 89.046 C 251.087 88.940,250.068 88.330,248.906 87.690 C 247.743 87.050,246.725 86.450,246.642 86.357 C 246.558 86.265,245.958 85.917,245.307 85.585 C 243.544 84.686,241.808 83.709,240.453 82.854 C 239.789 82.435,238.827 81.901,238.316 81.667 C 237.804 81.434,237.218 81.040,237.012 80.792 C 236.806 80.544,236.239 80.253,235.753 80.146 C 235.266 80.039,234.868 79.822,234.868 79.663 C 234.868 79.505,234.291 79.102,233.585 78.769 C 232.879 78.436,231.758 77.832,231.094 77.427 C 230.430 77.023,229.411 76.451,228.830 76.157 C 228.249 75.863,227.602 75.461,227.393 75.264 C 227.184 75.066,226.538 74.733,225.959 74.524 C 225.380 74.314,224.906 74.027,224.906 73.886 C 224.906 73.745,224.498 73.487,224.000 73.313 C 223.502 73.140,223.094 72.903,223.094 72.787 C 223.094 72.671,222.483 72.325,221.736 72.016 C 220.989 71.708,220.377 71.350,220.377 71.219 C 220.377 71.089,219.902 70.811,219.321 70.600 C 218.740 70.390,218.264 70.123,218.264 70.007 C 218.264 69.891,217.653 69.544,216.907 69.237 C 216.160 68.930,215.549 68.594,215.548 68.489 C 215.548 68.385,215.140 68.131,214.642 67.925 C 214.143 67.718,213.735 67.464,213.733 67.360 C 213.731 67.255,213.120 66.902,212.374 66.574 C 211.629 66.246,211.019 65.872,211.019 65.744 C 211.019 65.615,210.887 65.509,210.726 65.509 C 210.565 65.509,209.658 65.155,208.712 64.722 C 206.188 63.568,198.606 62.325,197.969 62.962 M177.509 112.707 C 180.385 113.835,180.348 113.650,180.542 127.698 C 180.749 142.700,180.591 142.315,186.566 142.312 C 192.978 142.309,192.718 142.910,192.906 127.650 L 193.057 115.376 193.994 114.216 C 196.371 111.278,205.443 110.940,208.032 113.694 L 208.755 114.463 208.924 127.043 C 209.124 141.891,209.079 141.642,211.671 142.147 C 212.558 142.319,217.426 142.545,222.491 142.649 C 235.370 142.914,236.470 143.170,237.283 146.096 C 237.662 147.460,237.678 182.370,237.300 184.977 C 236.964 187.305,236.129 188.532,234.299 189.387 L 232.906 190.038 201.208 190.038 C 166.898 190.038,167.494 190.065,165.938 188.421 C 164.170 186.553,164.209 187.449,164.297 150.320 L 164.377 116.377 165.045 114.932 C 166.425 111.941,172.703 110.821,177.509 112.707 M211.019 160.383 C 208.221 161.769,208.141 169.562,210.905 171.373 C 212.355 172.323,218.547 172.179,219.627 171.170 C 222.168 168.796,221.928 161.545,219.268 160.333 C 218.258 159.873,211.972 159.911,211.019 160.383 " stroke="none" fill="#f46404" fill-rule="evenodd"></path><path id="path2" d="M171.704 112.219 C 172.246 112.286,173.061 112.285,173.515 112.216 C 173.968 112.147,173.525 112.092,172.528 112.094 C 171.532 112.095,171.161 112.152,171.704 112.219 M200.383 112.219 C 200.925 112.286,201.740 112.285,202.194 112.216 C 202.648 112.147,202.204 112.092,201.208 112.094 C 200.211 112.095,199.840 112.152,200.383 112.219 M179.018 114.038 C 179.413 114.577,179.783 115.019,179.841 115.019 C 180.070 115.019,179.322 113.887,178.827 113.485 C 178.501 113.220,178.573 113.431,179.018 114.038 M164.604 117.887 C 164.608 118.551,164.670 118.787,164.742 118.412 C 164.814 118.036,164.811 117.493,164.736 117.204 C 164.660 116.915,164.601 117.223,164.604 117.887 M180.362 129.358 C 180.361 134.838,180.402 137.122,180.452 134.434 C 180.502 131.747,180.502 127.264,180.452 124.472 C 180.403 121.680,180.362 123.879,180.362 129.358 M180.537 139.983 C 180.532 140.181,180.834 140.664,181.208 141.055 C 181.581 141.446,181.736 141.555,181.552 141.298 C 181.367 141.041,181.066 140.558,180.882 140.226 C 180.697 139.894,180.543 139.785,180.537 139.983 M185.585 142.709 C 186.125 142.776,187.008 142.776,187.547 142.709 C 188.087 142.642,187.645 142.587,186.566 142.587 C 185.487 142.587,185.045 142.642,185.585 142.709 M213.208 142.710 C 213.830 142.776,214.849 142.776,215.472 142.710 C 216.094 142.645,215.585 142.592,214.340 142.592 C 213.094 142.592,212.585 142.645,213.208 142.710 M226.043 143.011 C 226.586 143.078,227.401 143.077,227.854 143.008 C 228.308 142.939,227.864 142.884,226.868 142.886 C 225.872 142.888,225.501 142.944,226.043 143.011 M231.627 143.311 C 232.086 143.380,232.765 143.379,233.136 143.307 C 233.508 143.235,233.132 143.178,232.302 143.181 C 231.472 143.183,231.168 143.242,231.627 143.311 M237.419 170.415 C 237.419 176.226,237.460 178.561,237.509 175.603 C 237.559 172.645,237.558 167.891,237.509 165.037 C 237.459 162.184,237.419 164.604,237.419 170.415 M221.392 165.736 C 221.392 167.313,221.443 167.958,221.505 167.170 C 221.567 166.381,221.567 165.091,221.505 164.302 C 221.443 163.513,221.392 164.158,221.392 165.736 M213.520 172.299 C 214.481 172.359,215.976 172.358,216.841 172.298 C 217.707 172.237,216.921 172.188,215.094 172.188 C 213.268 172.189,212.560 172.239,213.520 172.299 M237.063 183.849 C 237.063 184.596,237.122 184.902,237.194 184.528 C 237.266 184.155,237.266 183.543,237.194 183.170 C 237.122 182.796,237.063 183.102,237.063 183.849 M164.598 184.151 C 164.598 184.732,164.660 184.970,164.736 184.679 C 164.812 184.389,164.812 183.913,164.736 183.623 C 164.660 183.332,164.598 183.570,164.598 184.151 M185.306 189.811 C 193.828 189.856,207.685 189.856,216.099 189.811 C 224.512 189.767,217.540 189.730,200.604 189.730 C 183.668 189.730,176.784 189.767,185.306 189.811 " stroke="none" fill="#fcb484" fill-rule="evenodd"></path><path id="path3" d="M171.698 111.911 C 172.072 111.983,172.683 111.983,173.057 111.911 C 173.430 111.839,173.125 111.780,172.377 111.780 C 171.630 111.780,171.325 111.839,171.698 111.911 M200.683 111.912 C 201.058 111.984,201.602 111.981,201.890 111.906 C 202.179 111.830,201.872 111.771,201.208 111.774 C 200.543 111.778,200.307 111.839,200.683 111.912 M192.992 117.585 C 192.994 118.415,193.053 118.719,193.122 118.260 C 193.192 117.801,193.190 117.122,193.118 116.751 C 193.047 116.379,192.990 116.755,192.992 117.585 M164.372 150.943 C 164.372 169.623,164.408 177.264,164.453 167.925 C 164.497 158.585,164.497 143.302,164.453 133.962 C 164.408 124.623,164.372 132.264,164.372 150.943 M208.992 138.113 C 208.994 138.943,209.053 139.247,209.122 138.788 C 209.192 138.329,209.190 137.650,209.118 137.279 C 209.047 136.908,208.990 137.283,208.992 138.113 M180.598 138.566 C 180.598 139.147,180.660 139.385,180.736 139.094 C 180.812 138.804,180.812 138.328,180.736 138.038 C 180.660 137.747,180.598 137.985,180.598 138.566 M188.453 142.397 C 188.743 142.473,189.219 142.473,189.509 142.397 C 189.800 142.321,189.562 142.259,188.981 142.259 C 188.400 142.259,188.162 142.321,188.453 142.397 M219.704 142.709 C 220.246 142.777,221.061 142.775,221.515 142.706 C 221.968 142.637,221.525 142.582,220.528 142.584 C 219.532 142.586,219.161 142.642,219.704 142.709 M230.419 143.009 C 230.878 143.078,231.557 143.077,231.929 143.005 C 232.300 142.933,231.925 142.877,231.094 142.879 C 230.264 142.881,229.960 142.940,230.419 143.009 M237.365 151.547 C 237.365 152.294,237.424 152.600,237.496 152.226 C 237.568 151.853,237.568 151.242,237.496 150.868 C 237.424 150.494,237.365 150.800,237.365 151.547 M213.660 159.921 C 214.532 159.982,215.958 159.982,216.830 159.921 C 217.702 159.860,216.989 159.810,215.245 159.810 C 213.502 159.810,212.789 159.860,213.660 159.921 M220.570 161.660 C 221.268 162.852,221.283 162.870,221.283 162.499 C 221.283 162.324,221.003 161.859,220.661 161.467 L 220.040 160.755 220.570 161.660 M185.585 190.113 C 193.928 190.158,207.581 190.158,215.925 190.113 C 224.268 190.069,217.442 190.032,200.755 190.032 C 184.068 190.032,177.242 190.069,185.585 190.113 " stroke="none" fill="#fc995b" fill-rule="evenodd"></path><path id="path4" d="M180.296 118.642 C 180.296 119.223,180.359 119.460,180.435 119.170 C 180.510 118.879,180.510 118.404,180.435 118.113 C 180.359 117.823,180.296 118.060,180.296 118.642 M193.040 128.453 C 193.040 133.766,193.082 135.897,193.132 133.189 C 193.182 130.480,193.182 126.133,193.131 123.528 C 193.081 120.924,193.040 123.140,193.040 128.453 M216.981 142.704 C 217.355 142.776,217.966 142.776,218.340 142.704 C 218.713 142.632,218.408 142.573,217.660 142.573 C 216.913 142.573,216.608 142.632,216.981 142.704 M237.365 149.132 C 237.365 149.879,237.424 150.185,237.496 149.811 C 237.568 149.438,237.568 148.826,237.496 148.453 C 237.424 148.079,237.365 148.385,237.365 149.132 M237.399 156.377 C 237.399 158.453,237.448 159.302,237.507 158.264 C 237.565 157.226,237.565 155.528,237.507 154.491 C 237.448 153.453,237.399 154.302,237.399 156.377 " stroke="none" fill="#fcac74" fill-rule="evenodd"></path></g></svg>