<svg id="svg" version="1.1" xmlns="http://www.w3.org/2000/svg" xmlns:xlink="http://www.w3.org/1999/xlink" width="400" height="400" viewBox="0, 0, 400,400"><g id="svgg"><path id="path0" d="M179.633 0.381 C 174.895 0.539,173.019 0.739,172.899 1.100 C 172.782 1.453,171.625 1.600,168.967 1.600 C 165.885 1.600,165.200 1.709,165.200 2.200 C 165.200 2.676,164.622 2.800,162.400 2.800 C 160.178 2.800,159.600 2.924,159.600 3.400 C 159.600 3.865,159.072 4.000,157.249 4.000 C 155.647 4.000,154.739 4.191,154.400 4.600 C 154.070 4.997,153.175 5.200,151.751 5.200 C 150.568 5.200,149.600 5.380,149.600 5.600 C 149.600 5.820,148.874 6.000,147.987 6.000 C 146.923 6.000,146.297 6.204,146.145 6.600 C 145.979 7.031,145.306 7.200,143.757 7.200 C 142.106 7.200,141.600 7.341,141.600 7.800 C 141.600 8.233,141.156 8.400,140.000 8.400 C 138.844 8.400,138.400 8.567,138.400 9.000 C 138.400 9.433,137.956 9.600,136.800 9.600 C 135.920 9.600,135.200 9.780,135.200 10.000 C 135.200 10.220,134.474 10.400,133.587 10.400 C 132.523 10.400,131.897 10.604,131.745 11.000 C 131.595 11.391,130.972 11.600,129.957 11.600 C 128.840 11.600,128.400 11.769,128.400 12.200 C 128.400 12.600,128.000 12.800,127.200 12.800 C 126.400 12.800,126.000 13.000,126.000 13.400 C 126.000 13.833,125.556 14.000,124.400 14.000 C 123.244 14.000,122.800 14.167,122.800 14.600 C 122.800 15.000,122.400 15.200,121.600 15.200 C 120.940 15.200,120.400 15.380,120.400 15.600 C 120.400 15.820,119.950 16.000,119.400 16.000 C 118.778 16.000,118.400 16.227,118.400 16.600 C 118.400 17.033,117.956 17.200,116.800 17.200 C 115.733 17.200,115.233 17.367,115.300 17.700 C 115.360 17.999,114.878 18.250,114.100 18.325 C 113.295 18.403,112.800 18.669,112.800 19.025 C 112.800 19.368,112.406 19.600,111.824 19.600 C 111.287 19.600,110.736 19.780,110.600 20.000 C 110.464 20.220,109.998 20.400,109.564 20.400 C 109.130 20.400,108.671 20.670,108.545 21.000 C 108.418 21.330,107.878 21.600,107.345 21.600 C 106.811 21.600,106.271 21.870,106.145 22.200 C 106.018 22.530,105.484 22.800,104.957 22.800 C 104.373 22.800,104.000 23.034,104.000 23.400 C 104.000 23.730,103.730 24.000,103.400 24.000 C 103.070 24.000,102.800 24.270,102.800 24.600 C 102.800 25.000,102.400 25.200,101.600 25.200 C 100.940 25.200,100.400 25.380,100.400 25.600 C 100.400 25.820,99.950 26.000,99.400 26.000 C 98.778 26.000,98.400 26.227,98.400 26.600 C 98.400 26.958,98.032 27.200,97.489 27.200 C 96.596 27.200,95.200 28.423,95.200 29.205 C 95.200 29.422,94.660 29.600,94.000 29.600 C 93.340 29.600,92.800 29.780,92.800 30.000 C 92.800 30.220,92.530 30.400,92.200 30.400 C 91.870 30.400,91.600 30.670,91.600 31.000 C 91.600 31.373,91.222 31.600,90.600 31.600 C 89.978 31.600,89.600 31.827,89.600 32.200 C 89.600 32.600,89.200 32.800,88.400 32.800 C 87.600 32.800,87.200 33.000,87.200 33.400 C 87.200 33.730,86.930 34.000,86.600 34.000 C 86.270 34.000,86.000 34.193,86.000 34.429 C 86.000 35.192,84.883 36.000,83.829 36.000 C 83.181 36.000,82.800 36.222,82.800 36.600 C 82.800 36.930,82.530 37.200,82.200 37.200 C 81.870 37.200,81.600 37.470,81.600 37.800 C 81.600 38.173,81.222 38.400,80.600 38.400 C 79.978 38.400,79.600 38.627,79.600 39.000 C 79.600 39.330,79.330 39.600,79.000 39.600 C 78.670 39.600,78.400 39.780,78.400 40.000 C 78.400 40.220,78.130 40.400,77.800 40.400 C 77.470 40.400,77.200 40.670,77.200 41.000 C 77.200 41.330,76.930 41.600,76.600 41.600 C 76.270 41.600,76.000 41.870,76.000 42.200 C 76.000 42.573,75.622 42.800,75.000 42.800 C 74.378 42.800,74.000 43.027,74.000 43.400 C 74.000 43.730,73.730 44.000,73.400 44.000 C 73.070 44.000,72.800 44.270,72.800 44.600 C 72.800 44.930,72.530 45.200,72.200 45.200 C 71.870 45.200,71.600 45.380,71.600 45.600 C 71.600 45.820,71.330 46.000,71.000 46.000 C 70.670 46.000,70.400 46.270,70.400 46.600 C 70.400 46.930,70.220 47.200,70.000 47.200 C 69.780 47.200,69.600 47.470,69.600 47.800 C 69.600 48.200,69.200 48.400,68.400 48.400 C 67.600 48.400,67.200 48.600,67.200 49.000 C 67.200 49.330,67.007 49.600,66.771 49.600 C 66.218 49.600,65.200 50.618,65.200 51.171 C 65.200 51.407,64.930 51.600,64.600 51.600 C 64.270 51.600,64.000 51.870,64.000 52.200 C 64.000 52.530,63.730 52.800,63.400 52.800 C 63.070 52.800,62.800 53.070,62.800 53.400 C 62.800 53.730,62.530 54.000,62.200 54.000 C 61.870 54.000,61.600 54.270,61.600 54.600 C 61.600 54.930,61.407 55.200,61.171 55.200 C 60.618 55.200,59.600 56.218,59.600 56.771 C 59.600 57.007,59.330 57.200,59.000 57.200 C 58.670 57.200,58.400 57.470,58.400 57.800 C 58.400 58.130,58.130 58.400,57.800 58.400 C 57.470 58.400,57.200 58.670,57.200 59.000 C 57.200 59.330,57.007 59.600,56.771 59.600 C 56.218 59.600,55.200 60.618,55.200 61.171 C 55.200 61.407,54.930 61.600,54.600 61.600 C 54.270 61.600,54.000 61.870,54.000 62.200 C 54.000 62.530,53.730 62.800,53.400 62.800 C 53.070 62.800,52.800 63.070,52.800 63.400 C 52.800 63.730,52.530 64.000,52.200 64.000 C 51.870 64.000,51.600 64.270,51.600 64.600 C 51.600 64.930,51.407 65.200,51.171 65.200 C 50.618 65.200,49.600 66.218,49.600 66.771 C 49.600 67.007,49.330 67.200,49.000 67.200 C 48.600 67.200,48.400 67.600,48.400 68.400 C 48.400 69.200,48.200 69.600,47.800 69.600 C 47.470 69.600,47.200 69.780,47.200 70.000 C 47.200 70.220,46.930 70.400,46.600 70.400 C 46.270 70.400,46.000 70.670,46.000 71.000 C 46.000 71.330,45.820 71.600,45.600 71.600 C 45.380 71.600,45.200 71.870,45.200 72.200 C 45.200 72.530,44.930 72.800,44.600 72.800 C 44.270 72.800,44.000 73.070,44.000 73.400 C 44.000 73.730,43.730 74.000,43.400 74.000 C 43.027 74.000,42.800 74.378,42.800 75.000 C 42.800 75.622,42.573 76.000,42.200 76.000 C 41.870 76.000,41.600 76.270,41.600 76.600 C 41.600 76.930,41.330 77.200,41.000 77.200 C 40.670 77.200,40.400 77.470,40.400 77.800 C 40.400 78.130,40.220 78.400,40.000 78.400 C 39.780 78.400,39.600 78.670,39.600 79.000 C 39.600 79.330,39.330 79.600,39.000 79.600 C 38.627 79.600,38.400 79.978,38.400 80.600 C 38.400 81.222,38.173 81.600,37.800 81.600 C 37.470 81.600,37.200 81.870,37.200 82.200 C 37.200 82.530,36.930 82.800,36.600 82.800 C 36.222 82.800,36.000 83.181,36.000 83.829 C 36.000 84.883,35.192 86.000,34.429 86.000 C 34.193 86.000,34.000 86.270,34.000 86.600 C 34.000 86.930,33.730 87.200,33.400 87.200 C 33.000 87.200,32.800 87.600,32.800 88.400 C 32.800 89.200,32.600 89.600,32.200 89.600 C 31.827 89.600,31.600 89.978,31.600 90.600 C 31.600 91.222,31.373 91.600,31.000 91.600 C 30.670 91.600,30.400 91.870,30.400 92.200 C 30.400 92.530,30.220 92.800,30.000 92.800 C 29.780 92.800,29.600 93.340,29.600 94.000 C 29.600 94.660,29.422 95.200,29.205 95.200 C 28.423 95.200,27.200 96.596,27.200 97.489 C 27.200 98.032,26.958 98.400,26.600 98.400 C 26.227 98.400,26.000 98.778,26.000 99.400 C 26.000 99.950,25.820 100.400,25.600 100.400 C 25.380 100.400,25.200 100.940,25.200 101.600 C 25.200 102.400,25.000 102.800,24.600 102.800 C 24.270 102.800,24.000 103.070,24.000 103.400 C 24.000 103.730,23.730 104.000,23.400 104.000 C 23.032 104.000,22.800 104.374,22.800 104.967 C 22.800 105.498,22.591 106.003,22.337 106.088 C 22.082 106.173,21.807 106.678,21.725 107.212 C 21.644 107.745,21.313 108.329,20.989 108.510 C 20.665 108.691,20.400 109.191,20.400 109.620 C 20.400 110.049,20.220 110.400,20.000 110.400 C 19.780 110.400,19.600 110.940,19.600 111.600 C 19.600 112.400,19.400 112.800,19.000 112.800 C 18.600 112.800,18.400 113.200,18.400 114.000 C 18.400 114.800,18.200 115.200,17.800 115.200 C 17.367 115.200,17.200 115.644,17.200 116.800 C 17.200 117.956,17.033 118.400,16.600 118.400 C 16.227 118.400,16.000 118.778,16.000 119.400 C 16.000 119.950,15.820 120.400,15.600 120.400 C 15.380 120.400,15.200 120.940,15.200 121.600 C 15.200 122.400,15.000 122.800,14.600 122.800 C 14.167 122.800,14.000 123.244,14.000 124.400 C 14.000 125.556,13.833 126.000,13.400 126.000 C 13.000 126.000,12.800 126.400,12.800 127.200 C 12.800 128.000,12.600 128.400,12.200 128.400 C 11.769 128.400,11.600 128.840,11.600 129.957 C 11.600 130.972,11.391 131.595,11.000 131.745 C 10.604 131.897,10.400 132.523,10.400 133.587 C 10.400 134.474,10.220 135.200,10.000 135.200 C 9.780 135.200,9.600 135.920,9.600 136.800 C 9.600 137.956,9.433 138.400,9.000 138.400 C 8.567 138.400,8.400 138.844,8.400 140.000 C 8.400 141.059,8.221 141.600,7.871 141.600 C 7.513 141.600,7.312 142.274,7.247 143.698 C 7.187 145.025,6.940 145.914,6.576 146.118 C 6.226 146.313,6.000 147.061,6.000 148.020 C 6.000 148.889,5.820 149.600,5.600 149.600 C 5.380 149.600,5.200 150.590,5.200 151.800 C 5.200 153.489,5.061 154.000,4.600 154.000 C 4.124 154.000,4.000 154.578,4.000 156.800 C 4.000 159.022,3.876 159.600,3.400 159.600 C 2.925 159.600,2.800 160.173,2.800 162.357 C 2.800 164.439,2.653 165.171,2.200 165.345 C 1.730 165.525,1.600 166.329,1.600 169.043 C 1.600 171.641,1.451 172.623,1.007 172.956 C -0.279 173.920,-0.188 227.871,1.100 228.300 C 1.431 228.410,1.600 229.339,1.600 231.046 C 1.600 232.970,1.753 233.684,2.200 233.855 C 2.662 234.033,2.800 234.800,2.800 237.194 C 2.800 239.469,2.961 240.436,3.400 240.800 C 3.809 241.139,4.000 242.047,4.000 243.649 C 4.000 245.472,4.135 246.000,4.600 246.000 C 5.061 246.000,5.200 246.511,5.200 248.200 C 5.200 249.410,5.380 250.400,5.600 250.400 C 5.820 250.400,6.000 251.197,6.000 252.171 C 6.000 253.213,6.247 254.190,6.600 254.543 C 6.937 254.880,7.200 255.857,7.200 256.771 C 7.200 257.952,7.365 258.400,7.800 258.400 C 8.233 258.400,8.400 258.844,8.400 260.000 C 8.400 261.156,8.567 261.600,9.000 261.600 C 9.433 261.600,9.600 262.044,9.600 263.200 C 9.600 264.080,9.770 264.800,9.977 264.800 C 10.184 264.800,10.409 265.565,10.477 266.500 C 10.556 267.598,10.777 268.165,11.100 268.100 C 11.525 268.015,11.859 269.963,11.647 271.300 C 11.621 271.465,11.870 271.600,12.200 271.600 C 12.600 271.600,12.800 272.000,12.800 272.800 C 12.800 273.600,13.000 274.000,13.400 274.000 C 13.833 274.000,14.000 274.444,14.000 275.600 C 14.000 276.756,14.167 277.200,14.600 277.200 C 15.000 277.200,15.200 277.600,15.200 278.400 C 15.200 279.060,15.380 279.600,15.600 279.600 C 15.820 279.600,16.000 280.050,16.000 280.600 C 16.000 281.222,16.227 281.600,16.600 281.600 C 17.033 281.600,17.200 282.044,17.200 283.200 C 17.200 284.356,17.367 284.800,17.800 284.800 C 18.200 284.800,18.400 285.200,18.400 286.000 C 18.400 286.800,18.600 287.200,19.000 287.200 C 19.369 287.200,19.600 287.575,19.600 288.176 C 19.600 288.713,19.780 289.264,20.000 289.400 C 20.220 289.536,20.400 290.002,20.400 290.436 C 20.400 290.870,20.670 291.329,21.000 291.455 C 21.330 291.582,21.600 292.122,21.600 292.655 C 21.600 293.189,21.870 293.729,22.200 293.855 C 22.530 293.982,22.800 294.516,22.800 295.043 C 22.800 295.627,23.034 296.000,23.400 296.000 C 23.730 296.000,24.000 296.270,24.000 296.600 C 24.000 296.930,24.270 297.200,24.600 297.200 C 25.000 297.200,25.200 297.600,25.200 298.400 C 25.200 299.060,25.380 299.600,25.600 299.600 C 25.820 299.600,26.000 300.050,26.000 300.600 C 26.000 301.222,26.227 301.600,26.600 301.600 C 26.958 301.600,27.200 301.968,27.200 302.511 C 27.200 303.404,28.423 304.800,29.205 304.800 C 29.422 304.800,29.600 305.340,29.600 306.000 C 29.600 306.660,29.780 307.200,30.000 307.200 C 30.220 307.200,30.400 307.470,30.400 307.800 C 30.400 308.130,30.670 308.400,31.000 308.400 C 31.373 308.400,31.600 308.778,31.600 309.400 C 31.600 310.022,31.827 310.400,32.200 310.400 C 32.530 310.400,32.800 310.670,32.800 311.000 C 32.800 311.330,33.070 311.600,33.400 311.600 C 33.800 311.600,34.000 312.000,34.000 312.800 C 34.000 313.460,34.193 314.000,34.429 314.000 C 35.138 314.000,36.000 315.088,36.000 315.984 C 36.000 316.447,36.270 316.929,36.600 317.055 C 36.930 317.182,37.200 317.536,37.200 317.843 C 37.200 318.149,37.470 318.400,37.800 318.400 C 38.173 318.400,38.400 318.778,38.400 319.400 C 38.400 320.022,38.627 320.400,39.000 320.400 C 39.330 320.400,39.600 320.670,39.600 321.000 C 39.600 321.330,39.780 321.600,40.000 321.600 C 40.220 321.600,40.400 321.870,40.400 322.200 C 40.400 322.530,40.670 322.800,41.000 322.800 C 41.330 322.800,41.600 323.070,41.600 323.400 C 41.600 323.730,41.870 324.000,42.200 324.000 C 42.573 324.000,42.800 324.378,42.800 325.000 C 42.800 325.622,43.027 326.000,43.400 326.000 C 43.730 326.000,44.000 326.270,44.000 326.600 C 44.000 326.930,44.270 327.200,44.600 327.200 C 44.930 327.200,45.200 327.470,45.200 327.800 C 45.200 328.130,45.380 328.400,45.600 328.400 C 45.820 328.400,46.000 328.670,46.000 329.000 C 46.000 329.330,46.270 329.600,46.600 329.600 C 46.973 329.600,47.200 329.978,47.200 330.600 C 47.200 331.222,47.427 331.600,47.800 331.600 C 48.130 331.600,48.400 331.870,48.400 332.200 C 48.400 332.530,48.670 332.800,49.000 332.800 C 49.330 332.800,49.600 332.993,49.600 333.229 C 49.600 333.782,50.618 334.800,51.171 334.800 C 51.407 334.800,51.600 335.070,51.600 335.400 C 51.600 335.730,51.870 336.000,52.200 336.000 C 52.530 336.000,52.800 336.270,52.800 336.600 C 52.800 336.930,53.070 337.200,53.400 337.200 C 53.730 337.200,54.000 337.470,54.000 337.800 C 54.000 338.130,54.270 338.400,54.600 338.400 C 54.930 338.400,55.200 338.593,55.200 338.829 C 55.200 339.382,56.218 340.400,56.771 340.400 C 57.007 340.400,57.200 340.670,57.200 341.000 C 57.200 341.330,57.470 341.600,57.800 341.600 C 58.130 341.600,58.400 341.870,58.400 342.200 C 58.400 342.530,58.670 342.800,59.000 342.800 C 59.330 342.800,59.600 342.993,59.600 343.229 C 59.600 343.782,60.618 344.800,61.171 344.800 C 61.407 344.800,61.600 345.070,61.600 345.400 C 61.600 345.730,61.870 346.000,62.200 346.000 C 62.530 346.000,62.800 346.270,62.800 346.600 C 62.800 346.930,63.070 347.200,63.400 347.200 C 63.730 347.200,64.000 347.470,64.000 347.800 C 64.000 348.130,64.270 348.400,64.600 348.400 C 64.930 348.400,65.200 348.593,65.200 348.829 C 65.200 349.382,66.218 350.400,66.771 350.400 C 67.007 350.400,67.200 350.670,67.200 351.000 C 67.200 351.330,67.470 351.600,67.800 351.600 C 68.130 351.600,68.400 351.870,68.400 352.200 C 68.400 352.573,68.778 352.800,69.400 352.800 C 70.022 352.800,70.400 353.027,70.400 353.400 C 70.400 353.730,70.670 354.000,71.000 354.000 C 71.330 354.000,71.600 354.180,71.600 354.400 C 71.600 354.620,71.870 354.800,72.200 354.800 C 72.530 354.800,72.800 355.070,72.800 355.400 C 72.800 355.730,73.070 356.000,73.400 356.000 C 73.730 356.000,74.000 356.270,74.000 356.600 C 74.000 356.973,74.378 357.200,75.000 357.200 C 75.622 357.200,76.000 357.427,76.000 357.800 C 76.000 358.130,76.270 358.400,76.600 358.400 C 76.930 358.400,77.200 358.670,77.200 359.000 C 77.200 359.330,77.470 359.600,77.800 359.600 C 78.130 359.600,78.400 359.780,78.400 360.000 C 78.400 360.220,78.670 360.400,79.000 360.400 C 79.330 360.400,79.600 360.670,79.600 361.000 C 79.600 361.373,79.978 361.600,80.600 361.600 C 81.222 361.600,81.600 361.827,81.600 362.200 C 81.600 362.530,81.851 362.800,82.157 362.800 C 82.464 362.800,82.818 363.070,82.945 363.400 C 83.071 363.730,83.553 364.000,84.016 364.000 C 84.912 364.000,86.000 364.862,86.000 365.571 C 86.000 365.807,86.540 366.000,87.200 366.000 C 88.000 366.000,88.400 366.200,88.400 366.600 C 88.400 366.930,88.670 367.200,89.000 367.200 C 89.330 367.200,89.600 367.470,89.600 367.800 C 89.600 368.173,89.978 368.400,90.600 368.400 C 91.222 368.400,91.600 368.627,91.600 369.000 C 91.600 369.330,91.870 369.600,92.200 369.600 C 92.530 369.600,92.800 369.780,92.800 370.000 C 92.800 370.220,93.340 370.400,94.000 370.400 C 94.660 370.400,95.200 370.578,95.200 370.795 C 95.200 371.577,96.596 372.800,97.489 372.800 C 98.032 372.800,98.400 373.042,98.400 373.400 C 98.400 373.773,98.778 374.000,99.400 374.000 C 99.950 374.000,100.400 374.180,100.400 374.400 C 100.400 374.620,100.940 374.800,101.600 374.800 C 102.400 374.800,102.800 375.000,102.800 375.400 C 102.800 375.730,103.070 376.000,103.400 376.000 C 103.730 376.000,104.000 376.270,104.000 376.600 C 104.000 376.966,104.373 377.200,104.957 377.200 C 105.484 377.200,106.018 377.470,106.145 377.800 C 106.271 378.130,106.811 378.400,107.345 378.400 C 107.878 378.400,108.418 378.670,108.545 379.000 C 108.671 379.330,109.130 379.600,109.564 379.600 C 109.998 379.600,110.464 379.780,110.600 380.000 C 110.736 380.220,111.287 380.400,111.824 380.400 C 112.425 380.400,112.800 380.631,112.800 381.000 C 112.800 381.418,113.221 381.600,114.187 381.600 C 115.256 381.600,115.522 381.738,115.345 382.200 C 115.163 382.673,115.461 382.800,116.757 382.800 C 117.951 382.800,118.400 382.964,118.400 383.400 C 118.400 383.773,118.778 384.000,119.400 384.000 C 119.950 384.000,120.400 384.180,120.400 384.400 C 120.400 384.620,120.940 384.800,121.600 384.800 C 122.400 384.800,122.800 385.000,122.800 385.400 C 122.800 385.833,123.244 386.000,124.400 386.000 C 125.556 386.000,126.000 386.167,126.000 386.600 C 126.000 387.000,126.400 387.200,127.200 387.200 C 128.000 387.200,128.400 387.400,128.400 387.800 C 128.400 388.231,128.840 388.400,129.957 388.400 C 130.972 388.400,131.595 388.609,131.745 389.000 C 131.897 389.396,132.523 389.600,133.587 389.600 C 134.474 389.600,135.200 389.780,135.200 390.000 C 135.200 390.220,135.920 390.400,136.800 390.400 C 137.956 390.400,138.400 390.567,138.400 391.000 C 138.400 391.431,138.840 391.600,139.957 391.600 C 140.972 391.600,141.595 391.809,141.745 392.200 C 141.906 392.621,142.563 392.800,143.945 392.800 C 145.327 392.800,145.983 392.979,146.145 393.400 C 146.297 393.796,146.923 394.000,147.987 394.000 C 148.874 394.000,149.600 394.180,149.600 394.400 C 149.600 394.620,150.571 394.800,151.757 394.800 C 153.306 394.800,153.979 394.969,154.145 395.400 C 154.317 395.849,155.034 396.000,156.987 396.000 C 159.043 396.000,159.600 396.128,159.600 396.600 C 159.600 397.083,160.217 397.200,162.757 397.200 C 165.195 397.200,165.967 397.337,166.145 397.800 C 166.327 398.275,167.164 398.400,170.154 398.400 C 172.822 398.400,173.982 398.547,174.100 398.900 C 174.525 400.176,225.075 400.176,225.500 398.900 C 225.618 398.545,226.818 398.400,229.646 398.400 C 232.814 398.400,233.672 398.278,233.855 397.800 C 234.027 397.353,234.740 397.200,236.655 397.200 C 238.571 397.200,239.284 397.047,239.455 396.600 C 239.627 396.153,240.339 396.000,242.243 396.000 C 244.249 396.000,244.800 395.871,244.800 395.400 C 244.800 394.933,245.333 394.800,247.200 394.800 C 248.533 394.800,249.600 394.622,249.600 394.400 C 249.600 394.180,250.506 394.000,251.613 394.000 C 253.032 394.000,253.693 393.823,253.855 393.400 C 254.017 392.979,254.673 392.800,256.055 392.800 C 257.437 392.800,258.094 392.621,258.255 392.200 C 258.405 391.809,259.028 391.600,260.043 391.600 C 261.160 391.600,261.600 391.431,261.600 391.000 C 261.600 390.567,262.044 390.400,263.200 390.400 C 264.080 390.400,264.800 390.220,264.800 390.000 C 264.800 389.780,265.526 389.600,266.413 389.600 C 267.477 389.600,268.103 389.396,268.255 389.000 C 268.398 388.628,269.007 388.400,269.855 388.400 C 270.704 388.400,271.313 388.172,271.455 387.800 C 271.587 387.458,272.183 387.200,272.843 387.200 C 273.605 387.200,274.000 386.995,274.000 386.600 C 274.000 386.167,274.444 386.000,275.600 386.000 C 276.756 386.000,277.200 385.833,277.200 385.400 C 277.200 385.000,277.600 384.800,278.400 384.800 C 279.060 384.800,279.600 384.620,279.600 384.400 C 279.600 384.180,280.050 384.000,280.600 384.000 C 281.222 384.000,281.600 383.773,281.600 383.400 C 281.600 382.964,282.049 382.800,283.243 382.800 C 284.539 382.800,284.837 382.673,284.655 382.200 C 284.478 381.738,284.744 381.600,285.813 381.600 C 286.779 381.600,287.200 381.418,287.200 381.000 C 287.200 380.627,287.578 380.400,288.200 380.400 C 288.750 380.400,289.200 380.234,289.200 380.032 C 289.200 379.829,289.740 379.545,290.400 379.400 C 291.060 379.255,291.600 378.971,291.600 378.768 C 291.600 378.566,292.031 378.400,292.557 378.400 C 293.084 378.400,293.618 378.130,293.745 377.800 C 293.871 377.470,294.431 377.200,294.987 377.200 C 295.621 377.200,296.000 376.975,296.000 376.600 C 296.000 376.270,296.270 376.000,296.600 376.000 C 296.930 376.000,297.200 375.730,297.200 375.400 C 297.200 375.000,297.600 374.800,298.400 374.800 C 299.060 374.800,299.600 374.620,299.600 374.400 C 299.600 374.180,300.050 374.000,300.600 374.000 C 301.222 374.000,301.600 373.773,301.600 373.400 C 301.600 373.042,301.968 372.800,302.511 372.800 C 303.404 372.800,304.800 371.577,304.800 370.795 C 304.800 370.578,305.340 370.400,306.000 370.400 C 306.660 370.400,307.200 370.220,307.200 370.000 C 307.200 369.780,307.470 369.600,307.800 369.600 C 308.130 369.600,308.400 369.330,308.400 369.000 C 308.400 368.627,308.778 368.400,309.400 368.400 C 310.022 368.400,310.400 368.173,310.400 367.800 C 310.400 367.400,310.800 367.200,311.600 367.200 C 312.400 367.200,312.800 367.000,312.800 366.600 C 312.800 366.270,313.070 366.000,313.400 366.000 C 313.730 366.000,314.000 365.807,314.000 365.571 C 314.000 364.808,315.117 364.000,316.171 364.000 C 316.819 364.000,317.200 363.778,317.200 363.400 C 317.200 363.070,317.470 362.800,317.800 362.800 C 318.130 362.800,318.400 362.530,318.400 362.200 C 318.400 361.827,318.778 361.600,319.400 361.600 C 320.022 361.600,320.400 361.373,320.400 361.000 C 320.400 360.670,320.670 360.400,321.000 360.400 C 321.330 360.400,321.600 360.220,321.600 360.000 C 321.600 359.780,321.870 359.600,322.200 359.600 C 322.530 359.600,322.800 359.330,322.800 359.000 C 322.800 358.670,323.070 358.400,323.400 358.400 C 323.730 358.400,324.000 358.130,324.000 357.800 C 324.000 357.427,324.378 357.200,325.000 357.200 C 325.622 357.200,326.000 356.973,326.000 356.600 C 326.000 356.270,326.270 356.000,326.600 356.000 C 326.930 356.000,327.200 355.730,327.200 355.400 C 327.200 355.070,327.394 354.800,327.631 354.800 C 328.191 354.800,330.400 352.591,330.400 352.031 C 330.400 351.794,330.940 351.600,331.600 351.600 C 332.400 351.600,332.800 351.400,332.800 351.000 C 332.800 350.670,332.993 350.400,333.229 350.400 C 333.782 350.400,334.800 349.382,334.800 348.829 C 334.800 348.593,335.070 348.400,335.400 348.400 C 335.730 348.400,336.000 348.130,336.000 347.800 C 336.000 347.470,336.270 347.200,336.600 347.200 C 336.930 347.200,337.200 346.930,337.200 346.600 C 337.200 346.270,337.470 346.000,337.800 346.000 C 338.130 346.000,338.400 345.730,338.400 345.400 C 338.400 345.070,338.593 344.800,338.829 344.800 C 339.382 344.800,340.400 343.782,340.400 343.229 C 340.400 342.993,340.670 342.800,341.000 342.800 C 341.330 342.800,341.600 342.530,341.600 342.200 C 341.600 341.870,341.870 341.600,342.200 341.600 C 342.530 341.600,342.800 341.330,342.800 341.000 C 342.800 340.670,342.993 340.400,343.229 340.400 C 343.782 340.400,344.800 339.382,344.800 338.829 C 344.800 338.593,345.070 338.400,345.400 338.400 C 345.730 338.400,346.000 338.130,346.000 337.800 C 346.000 337.470,346.270 337.200,346.600 337.200 C 346.930 337.200,347.200 336.930,347.200 336.600 C 347.200 336.270,347.470 336.000,347.800 336.000 C 348.130 336.000,348.400 335.730,348.400 335.400 C 348.400 335.070,348.593 334.800,348.829 334.800 C 349.382 334.800,350.400 333.782,350.400 333.229 C 350.400 332.993,350.670 332.800,351.000 332.800 C 351.400 332.800,351.600 332.400,351.600 331.600 C 351.600 330.940,351.794 330.400,352.031 330.400 C 352.591 330.400,354.800 328.191,354.800 327.631 C 354.800 327.394,355.070 327.200,355.400 327.200 C 355.730 327.200,356.000 326.930,356.000 326.600 C 356.000 326.270,356.270 326.000,356.600 326.000 C 356.973 326.000,357.200 325.622,357.200 325.000 C 357.200 324.378,357.427 324.000,357.800 324.000 C 358.130 324.000,358.400 323.730,358.400 323.400 C 358.400 323.070,358.670 322.800,359.000 322.800 C 359.330 322.800,359.600 322.530,359.600 322.200 C 359.600 321.870,359.780 321.600,360.000 321.600 C 360.220 321.600,360.400 321.330,360.400 321.000 C 360.400 320.670,360.670 320.400,361.000 320.400 C 361.373 320.400,361.600 320.022,361.600 319.400 C 361.600 318.778,361.827 318.400,362.200 318.400 C 362.530 318.400,362.800 318.130,362.800 317.800 C 362.800 317.470,363.070 317.200,363.400 317.200 C 363.730 317.200,364.000 316.930,364.000 316.600 C 364.000 316.270,364.180 316.000,364.400 316.000 C 364.620 316.000,364.800 315.550,364.800 315.000 C 364.800 314.378,365.027 314.000,365.400 314.000 C 365.730 314.000,366.000 313.730,366.000 313.400 C 366.000 313.070,366.270 312.800,366.600 312.800 C 367.000 312.800,367.200 312.400,367.200 311.600 C 367.200 310.800,367.400 310.400,367.800 310.400 C 368.130 310.400,368.400 310.130,368.400 309.800 C 368.400 309.470,368.577 309.200,368.792 309.200 C 369.008 309.200,369.298 308.750,369.436 308.200 C 369.574 307.650,369.847 307.200,370.043 307.200 C 370.240 307.200,370.400 306.660,370.400 306.000 C 370.400 305.200,370.600 304.800,371.000 304.800 C 371.330 304.800,371.600 304.620,371.600 304.400 C 371.600 304.180,371.870 304.000,372.200 304.000 C 372.600 304.000,372.800 303.600,372.800 302.800 C 372.800 302.000,373.000 301.600,373.400 301.600 C 373.773 301.600,374.000 301.222,374.000 300.600 C 374.000 300.050,374.180 299.600,374.400 299.600 C 374.620 299.600,374.800 299.060,374.800 298.400 C 374.800 297.600,375.000 297.200,375.400 297.200 C 375.730 297.200,376.000 296.930,376.000 296.600 C 376.000 296.270,376.270 296.000,376.600 296.000 C 376.966 296.000,377.200 295.627,377.200 295.043 C 377.200 294.516,377.470 293.982,377.800 293.855 C 378.130 293.729,378.400 293.189,378.400 292.655 C 378.400 292.122,378.670 291.582,379.000 291.455 C 379.330 291.329,379.600 290.870,379.600 290.436 C 379.600 290.002,379.780 289.536,380.000 289.400 C 380.220 289.264,380.400 288.713,380.400 288.176 C 380.400 287.575,380.631 287.200,381.000 287.200 C 381.400 287.200,381.600 286.800,381.600 286.000 C 381.600 285.200,381.800 284.800,382.200 284.800 C 382.633 284.800,382.800 284.356,382.800 283.200 C 382.800 282.044,382.967 281.600,383.400 281.600 C 383.773 281.600,384.000 281.222,384.000 280.600 C 384.000 280.050,384.180 279.600,384.400 279.600 C 384.620 279.600,384.800 279.060,384.800 278.400 C 384.800 277.600,385.000 277.200,385.400 277.200 C 385.833 277.200,386.000 276.756,386.000 275.600 C 386.000 274.444,386.167 274.000,386.600 274.000 C 387.000 274.000,387.200 273.600,387.200 272.800 C 387.200 272.000,387.400 271.600,387.800 271.600 C 388.231 271.600,388.400 271.160,388.400 270.043 C 388.400 269.028,388.609 268.405,389.000 268.255 C 389.396 268.103,389.600 267.477,389.600 266.413 C 389.600 265.526,389.780 264.800,390.000 264.800 C 390.220 264.800,390.400 264.080,390.400 263.200 C 390.400 262.044,390.567 261.600,391.000 261.600 C 391.433 261.600,391.600 261.156,391.600 260.000 C 391.600 258.844,391.767 258.400,392.200 258.400 C 392.659 258.400,392.800 257.894,392.800 256.243 C 392.800 254.694,392.969 254.021,393.400 253.855 C 393.796 253.703,394.000 253.077,394.000 252.013 C 394.000 251.126,394.180 250.400,394.400 250.400 C 394.620 250.400,394.800 249.410,394.800 248.200 C 394.800 246.511,394.939 246.000,395.400 246.000 C 395.876 246.000,396.000 245.422,396.000 243.200 C 396.000 240.978,396.124 240.400,396.600 240.400 C 397.076 240.400,397.200 239.822,397.200 237.600 C 397.200 235.378,397.324 234.800,397.800 234.800 C 398.291 234.800,398.400 234.115,398.400 231.033 C 398.400 228.375,398.547 227.218,398.900 227.101 C 400.269 226.647,400.269 172.156,398.900 171.700 C 398.569 171.590,398.400 170.662,398.400 168.954 C 398.400 167.030,398.247 166.316,397.800 166.145 C 397.337 165.967,397.200 165.195,397.200 162.757 C 397.200 160.217,397.083 159.600,396.600 159.600 C 396.124 159.600,396.000 159.022,396.000 156.800 C 396.000 154.578,395.876 154.000,395.400 154.000 C 394.939 154.000,394.800 153.489,394.800 151.800 C 394.800 150.590,394.620 149.600,394.400 149.600 C 394.180 149.600,394.000 148.874,394.000 147.987 C 394.000 146.923,393.796 146.297,393.400 146.145 C 392.969 145.979,392.800 145.306,392.800 143.757 C 392.800 142.106,392.659 141.600,392.200 141.600 C 391.767 141.600,391.600 141.156,391.600 140.000 C 391.600 138.844,391.433 138.400,391.000 138.400 C 390.567 138.400,390.400 137.956,390.400 136.800 C 390.400 135.920,390.230 135.200,390.023 135.200 C 389.816 135.200,389.591 134.435,389.523 133.500 C 389.444 132.402,389.223 131.835,388.900 131.900 C 388.559 131.968,388.400 131.427,388.400 130.200 C 388.400 128.867,388.244 128.400,387.800 128.400 C 387.400 128.400,387.200 128.000,387.200 127.200 C 387.200 126.400,387.000 126.000,386.600 126.000 C 386.167 126.000,386.000 125.556,386.000 124.400 C 386.000 123.244,385.833 122.800,385.400 122.800 C 385.000 122.800,384.800 122.400,384.800 121.600 C 384.800 120.940,384.620 120.400,384.400 120.400 C 384.180 120.400,384.000 119.950,384.000 119.400 C 384.000 118.778,383.773 118.400,383.400 118.400 C 382.967 118.400,382.800 117.956,382.800 116.800 C 382.800 115.644,382.633 115.200,382.200 115.200 C 381.800 115.200,381.600 114.800,381.600 114.000 C 381.600 113.200,381.400 112.800,381.000 112.800 C 380.631 112.800,380.400 112.425,380.400 111.824 C 380.400 111.287,380.220 110.736,380.000 110.600 C 379.780 110.464,379.600 109.998,379.600 109.564 C 379.600 109.130,379.330 108.671,379.000 108.545 C 378.670 108.418,378.400 107.878,378.400 107.345 C 378.400 106.811,378.130 106.271,377.800 106.145 C 377.470 106.018,377.200 105.484,377.200 104.957 C 377.200 104.373,376.966 104.000,376.600 104.000 C 376.270 104.000,376.000 103.730,376.000 103.400 C 376.000 103.070,375.730 102.800,375.400 102.800 C 375.000 102.800,374.800 102.400,374.800 101.600 C 374.800 100.940,374.620 100.400,374.400 100.400 C 374.180 100.400,374.000 99.950,374.000 99.400 C 374.000 98.778,373.773 98.400,373.400 98.400 C 373.042 98.400,372.800 98.032,372.800 97.489 C 372.800 96.596,371.577 95.200,370.795 95.200 C 370.578 95.200,370.400 94.660,370.400 94.000 C 370.400 93.340,370.220 92.800,370.000 92.800 C 369.780 92.800,369.600 92.530,369.600 92.200 C 369.600 91.870,369.330 91.600,369.000 91.600 C 368.627 91.600,368.400 91.222,368.400 90.600 C 368.400 89.978,368.173 89.600,367.800 89.600 C 367.470 89.600,367.200 89.330,367.200 89.000 C 367.200 88.670,366.930 88.400,366.600 88.400 C 366.200 88.400,366.000 88.000,366.000 87.200 C 366.000 86.540,365.807 86.000,365.571 86.000 C 364.808 86.000,364.000 84.883,364.000 83.829 C 364.000 83.181,363.778 82.800,363.400 82.800 C 363.070 82.800,362.800 82.530,362.800 82.200 C 362.800 81.870,362.530 81.600,362.200 81.600 C 361.827 81.600,361.600 81.222,361.600 80.600 C 361.600 79.978,361.373 79.600,361.000 79.600 C 360.670 79.600,360.400 79.330,360.400 79.000 C 360.400 78.670,360.220 78.400,360.000 78.400 C 359.780 78.400,359.600 78.130,359.600 77.800 C 359.600 77.470,359.330 77.200,359.000 77.200 C 358.670 77.200,358.400 76.930,358.400 76.600 C 358.400 76.270,358.130 76.000,357.800 76.000 C 357.427 76.000,357.200 75.622,357.200 75.000 C 357.200 74.378,356.973 74.000,356.600 74.000 C 356.270 74.000,356.000 73.730,356.000 73.400 C 356.000 73.070,355.730 72.800,355.400 72.800 C 355.070 72.800,354.800 72.596,354.800 72.346 C 354.800 72.096,354.350 71.475,353.800 70.965 C 353.250 70.455,352.800 69.670,352.800 69.219 C 352.800 68.758,352.538 68.400,352.200 68.400 C 351.870 68.400,351.600 68.130,351.600 67.800 C 351.600 67.470,351.330 67.200,351.000 67.200 C 350.670 67.200,350.400 67.007,350.400 66.771 C 350.400 66.218,349.382 65.200,348.829 65.200 C 348.593 65.200,348.400 64.930,348.400 64.600 C 348.400 64.270,348.130 64.000,347.800 64.000 C 347.470 64.000,347.200 63.730,347.200 63.400 C 347.200 63.070,346.930 62.800,346.600 62.800 C 346.270 62.800,346.000 62.530,346.000 62.200 C 346.000 61.870,345.730 61.600,345.400 61.600 C 345.070 61.600,344.800 61.407,344.800 61.171 C 344.800 60.618,343.782 59.600,343.229 59.600 C 342.993 59.600,342.800 59.330,342.800 59.000 C 342.800 58.670,342.530 58.400,342.200 58.400 C 341.870 58.400,341.600 58.130,341.600 57.800 C 341.600 57.470,341.330 57.200,341.000 57.200 C 340.670 57.200,340.400 57.007,340.400 56.771 C 340.400 56.218,339.382 55.200,338.829 55.200 C 338.593 55.200,338.400 54.930,338.400 54.600 C 338.400 54.270,338.130 54.000,337.800 54.000 C 337.470 54.000,337.200 53.730,337.200 53.400 C 337.200 53.070,336.930 52.800,336.600 52.800 C 336.270 52.800,336.000 52.530,336.000 52.200 C 336.000 51.870,335.730 51.600,335.400 51.600 C 335.070 51.600,334.800 51.407,334.800 51.171 C 334.800 50.618,333.782 49.600,333.229 49.600 C 332.993 49.600,332.800 49.330,332.800 49.000 C 332.800 48.670,332.530 48.400,332.200 48.400 C 331.870 48.400,331.600 48.130,331.600 47.800 C 331.600 47.462,331.242 47.200,330.781 47.200 C 330.330 47.200,329.545 46.750,329.035 46.200 C 328.525 45.650,327.904 45.200,327.654 45.200 C 327.404 45.200,327.200 44.930,327.200 44.600 C 327.200 44.270,326.930 44.000,326.600 44.000 C 326.270 44.000,326.000 43.730,326.000 43.400 C 326.000 43.027,325.622 42.800,325.000 42.800 C 324.378 42.800,324.000 42.573,324.000 42.200 C 324.000 41.870,323.730 41.600,323.400 41.600 C 323.070 41.600,322.800 41.330,322.800 41.000 C 322.800 40.670,322.530 40.400,322.200 40.400 C 321.870 40.400,321.600 40.220,321.600 40.000 C 321.600 39.780,321.330 39.600,321.000 39.600 C 320.670 39.600,320.400 39.330,320.400 39.000 C 320.400 38.627,320.022 38.400,319.400 38.400 C 318.778 38.400,318.400 38.173,318.400 37.800 C 318.400 37.470,318.130 37.200,317.800 37.200 C 317.470 37.200,317.200 36.930,317.200 36.600 C 317.200 36.222,316.819 36.000,316.171 36.000 C 315.117 36.000,314.000 35.192,314.000 34.429 C 314.000 34.193,313.460 34.000,312.800 34.000 C 312.000 34.000,311.600 33.800,311.600 33.400 C 311.600 33.070,311.330 32.800,311.000 32.800 C 310.670 32.800,310.400 32.530,310.400 32.200 C 310.400 31.827,310.022 31.600,309.400 31.600 C 308.778 31.600,308.400 31.373,308.400 31.000 C 308.400 30.670,308.130 30.400,307.800 30.400 C 307.470 30.400,307.200 30.220,307.200 30.000 C 307.200 29.780,306.660 29.600,306.000 29.600 C 305.340 29.600,304.800 29.422,304.800 29.205 C 304.800 28.423,303.404 27.200,302.511 27.200 C 301.968 27.200,301.600 26.958,301.600 26.600 C 301.600 26.227,301.222 26.000,300.600 26.000 C 300.050 26.000,299.600 25.820,299.600 25.600 C 299.600 25.380,299.060 25.200,298.400 25.200 C 297.600 25.200,297.200 25.000,297.200 24.600 C 297.200 24.270,296.930 24.000,296.600 24.000 C 296.270 24.000,296.000 23.730,296.000 23.400 C 296.000 23.034,295.627 22.800,295.043 22.800 C 294.516 22.800,293.982 22.530,293.855 22.200 C 293.729 21.870,293.189 21.600,292.655 21.600 C 292.122 21.600,291.597 21.368,291.488 21.085 C 291.379 20.801,290.370 20.319,289.245 20.012 C 288.100 19.700,287.200 19.223,287.200 18.928 C 287.200 18.608,286.727 18.400,286.000 18.400 C 285.200 18.400,284.800 18.200,284.800 17.800 C 284.800 17.367,284.356 17.200,283.200 17.200 C 282.044 17.200,281.600 17.033,281.600 16.600 C 281.600 16.227,281.222 16.000,280.600 16.000 C 280.050 16.000,279.600 15.820,279.600 15.600 C 279.600 15.380,279.060 15.200,278.400 15.200 C 277.600 15.200,277.200 15.000,277.200 14.600 C 277.200 14.167,276.756 14.000,275.600 14.000 C 274.444 14.000,274.000 13.833,274.000 13.400 C 274.000 13.000,273.600 12.800,272.800 12.800 C 272.000 12.800,271.600 12.600,271.600 12.200 C 271.600 11.769,271.160 11.600,270.043 11.600 C 269.028 11.600,268.405 11.391,268.255 11.000 C 268.103 10.604,267.477 10.400,266.413 10.400 C 265.526 10.400,264.800 10.220,264.800 10.000 C 264.800 9.780,264.080 9.600,263.200 9.600 C 262.044 9.600,261.600 9.433,261.600 9.000 C 261.600 8.567,261.156 8.400,260.000 8.400 C 258.844 8.400,258.400 8.233,258.400 7.800 C 258.400 7.365,257.952 7.200,256.771 7.200 C 255.857 7.200,254.880 6.937,254.543 6.600 C 254.190 6.247,253.213 6.000,252.171 6.000 C 251.197 6.000,250.400 5.820,250.400 5.600 C 250.400 5.380,249.410 5.200,248.200 5.200 C 246.511 5.200,246.000 5.061,246.000 4.600 C 246.000 4.124,245.422 4.000,243.200 4.000 C 240.978 4.000,240.400 3.876,240.400 3.400 C 240.400 2.917,239.783 2.800,237.243 2.800 C 234.805 2.800,234.033 2.663,233.855 2.200 C 233.681 1.746,232.947 1.600,230.846 1.600 C 228.978 1.600,228.012 1.436,227.900 1.100 C 227.605 0.214,197.883 -0.229,179.633 0.381 M265.400 120.400 C 265.536 120.620,266.018 120.800,266.471 120.800 C 270.473 120.800,278.011 129.144,279.300 135.000 C 279.913 137.782,280.057 156.317,279.469 156.681 C 278.893 157.037,271.331 157.267,269.918 156.971 C 268.901 156.758,268.830 156.598,268.718 154.272 L 268.600 151.800 178.696 151.699 L 88.792 151.598 88.896 207.915 L 89.000 264.232 90.299 265.872 C 93.017 269.304,84.503 268.986,177.000 269.111 C 265.146 269.231,263.463 269.267,265.496 267.213 C 266.912 265.782,267.600 264.909,267.600 264.543 C 267.600 262.543,278.227 261.130,278.957 263.033 C 280.119 266.061,273.904 276.800,270.990 276.800 C 270.719 276.800,270.274 277.070,270.000 277.400 C 269.726 277.730,269.164 278.000,268.751 278.000 C 268.338 278.000,268.000 278.163,268.000 278.363 C 268.000 280.422,98.211 281.462,91.800 279.443 C 85.162 277.352,80.169 272.559,78.268 266.454 C 77.234 263.132,77.243 136.824,78.278 133.546 C 80.178 127.528,85.186 122.691,91.800 120.485 C 93.460 119.932,265.059 119.847,265.400 120.400 M256.359 133.713 C 254.079 135.245,254.420 140.000,256.809 140.000 C 257.156 140.000,257.656 140.216,257.920 140.480 C 258.293 140.853,258.507 140.853,258.880 140.480 C 259.144 140.216,259.656 140.000,260.018 140.000 C 262.487 140.000,262.800 134.691,260.400 133.521 C 258.530 132.609,257.962 132.636,256.359 133.713 M222.275 134.013 C 220.795 135.177,220.745 137.833,222.178 139.180 C 223.552 140.470,246.211 140.596,247.917 139.322 C 249.312 138.281,249.574 135.262,248.364 134.167 C 246.973 132.907,223.854 132.770,222.275 134.013 M281.260 163.082 C 282.005 163.827,282.165 164.509,282.294 167.482 C 282.500 172.241,283.199 173.834,285.223 174.157 C 286.071 174.293,287.610 174.853,288.642 175.402 C 289.674 175.951,290.754 176.400,291.042 176.400 C 291.329 176.400,292.228 176.850,293.038 177.400 C 295.075 178.783,295.132 178.765,299.115 175.449 C 304.172 171.240,303.719 171.221,308.422 175.841 C 313.512 180.842,313.524 180.953,309.500 185.819 C 307.905 187.748,306.657 189.523,306.727 189.763 C 306.797 190.003,307.514 191.550,308.320 193.200 C 309.126 194.850,310.154 197.460,310.605 199.000 L 311.424 201.800 314.033 202.059 C 315.467 202.202,317.335 202.510,318.183 202.744 C 319.031 202.978,319.885 203.071,320.080 202.951 C 321.744 201.922,322.400 203.896,322.400 209.929 C 322.400 216.690,322.357 216.789,319.420 216.825 C 318.309 216.839,316.074 217.064,314.453 217.325 L 311.507 217.800 310.780 220.153 C 310.381 221.447,309.862 222.698,309.627 222.933 C 309.392 223.168,309.200 223.752,309.200 224.231 C 309.200 224.710,308.930 225.326,308.600 225.600 C 308.270 225.874,308.000 226.363,308.000 226.686 C 308.000 227.009,307.650 227.719,307.222 228.262 C 306.495 229.188,306.507 230.303,307.252 230.812 C 308.203 231.461,312.400 237.870,312.400 238.673 C 312.400 239.504,307.448 244.952,304.714 247.128 C 303.991 247.703,303.125 247.404,301.466 246.005 C 295.457 240.939,295.169 240.805,293.193 242.144 C 292.427 242.662,291.350 243.214,290.800 243.369 C 290.250 243.524,289.440 243.825,289.000 244.038 C 288.560 244.251,287.120 244.744,285.800 245.133 L 283.400 245.840 282.918 248.020 C 282.652 249.219,282.321 251.606,282.181 253.324 C 281.868 257.173,281.816 257.202,275.274 257.195 C 268.344 257.186,268.365 257.204,267.804 251.000 C 267.365 246.134,267.336 246.067,265.470 245.570 C 263.602 245.072,260.117 243.731,259.200 243.156 C 258.870 242.949,257.840 242.419,256.912 241.977 L 255.224 241.173 253.864 242.087 C 253.117 242.589,251.551 243.776,250.386 244.724 C 246.112 248.202,246.256 248.221,241.876 243.617 C 240.734 242.417,239.305 240.982,238.700 240.428 C 237.235 239.088,237.313 238.024,239.029 235.938 C 239.814 234.982,240.849 233.693,241.329 233.072 C 241.808 232.452,242.515 231.647,242.900 231.284 C 243.862 230.375,243.802 229.986,242.200 226.745 C 241.430 225.187,240.794 223.617,240.787 223.256 C 240.780 222.895,240.510 222.251,240.187 221.824 C 239.864 221.396,239.600 220.569,239.600 219.986 C 239.600 218.120,235.979 216.832,230.600 216.784 C 229.940 216.778,228.995 216.436,228.500 216.023 C 226.465 214.325,227.534 201.723,229.605 203.003 C 229.812 203.131,230.751 203.027,231.691 202.772 C 232.631 202.517,234.644 202.194,236.165 202.054 L 238.929 201.800 239.644 199.263 C 240.037 197.867,240.728 196.017,241.179 195.150 C 241.631 194.284,242.000 193.370,242.000 193.119 C 242.000 192.868,242.256 192.379,242.569 192.031 C 243.923 190.529,243.750 189.440,241.797 187.164 C 236.712 181.241,236.708 181.180,241.100 176.805 C 246.087 171.836,246.690 171.604,249.099 173.716 C 249.924 174.440,250.985 175.295,251.455 175.616 C 251.925 175.937,252.945 176.705,253.721 177.322 L 255.132 178.443 258.266 176.874 C 259.990 176.010,262.480 174.995,263.800 174.616 C 267.132 173.661,267.597 173.151,267.614 170.438 C 267.633 167.430,268.587 163.145,269.365 162.576 C 270.636 161.647,280.233 162.055,281.260 163.082 M273.436 183.941 C 273.320 184.129,271.825 184.400,270.113 184.544 C 265.614 184.922,260.917 187.396,256.779 191.569 C 239.925 208.560,253.071 237.089,277.000 235.454 C 280.741 235.199,284.613 234.347,285.339 233.621 C 285.571 233.389,285.976 233.200,286.240 233.200 C 288.541 233.200,295.657 226.400,297.770 222.182 C 300.525 216.682,302.189 205.306,300.400 204.200 C 300.180 204.064,300.000 203.496,300.000 202.937 C 300.000 202.378,299.743 201.354,299.429 200.660 C 299.115 199.967,298.464 198.500,297.982 197.400 C 295.650 192.077,286.215 185.148,280.491 184.555 C 279.111 184.412,277.886 184.138,277.767 183.947 C 277.490 183.498,273.713 183.493,273.436 183.941 M146.800 191.316 C 147.387 191.612,147.848 192.229,147.915 192.810 C 148.025 193.753,148.903 196.255,149.614 197.651 C 149.796 198.009,150.068 198.956,150.218 199.755 C 150.368 200.555,150.650 201.307,150.845 201.428 C 151.040 201.549,151.201 202.132,151.202 202.724 C 151.204 203.316,151.474 204.316,151.802 204.946 C 152.131 205.576,152.400 206.391,152.400 206.757 C 152.400 207.123,152.645 207.777,152.945 208.211 C 153.245 208.645,153.584 209.540,153.699 210.200 C 153.913 211.426,154.654 213.684,155.226 214.851 C 155.402 215.209,155.668 216.156,155.818 216.955 C 155.968 217.755,156.250 218.507,156.445 218.628 C 156.640 218.749,156.800 219.190,156.800 219.610 C 156.800 220.030,157.046 220.964,157.348 221.686 C 160.653 229.614,160.498 229.985,153.874 229.994 C 148.799 230.000,147.608 229.677,147.586 228.286 C 147.578 227.799,147.314 226.950,147.000 226.400 C 146.686 225.850,146.422 224.911,146.414 224.314 C 146.406 223.699,146.097 223.068,145.700 222.858 C 144.771 222.366,135.339 222.491,134.873 223.001 C 134.359 223.564,133.600 225.952,133.600 227.006 C 133.600 229.491,132.413 230.000,126.618 230.000 C 120.650 230.000,120.183 229.736,121.371 227.024 C 122.074 225.417,122.470 224.233,123.988 219.200 C 124.685 216.890,125.498 214.460,125.795 213.800 C 126.092 213.140,126.422 212.150,126.527 211.600 C 126.704 210.678,127.259 208.982,128.032 207.000 C 128.203 206.560,128.738 204.850,129.220 203.200 C 129.703 201.550,130.255 200.029,130.449 199.820 C 130.642 199.611,130.806 198.981,130.814 198.420 C 130.822 197.859,131.086 196.950,131.400 196.400 C 131.714 195.850,131.978 194.989,131.986 194.486 C 132.004 193.298,133.121 191.611,134.172 191.186 C 135.532 190.635,145.657 190.740,146.800 191.316 M184.000 191.894 C 193.662 193.412,197.061 205.581,189.992 213.349 C 187.805 215.753,185.178 216.810,180.722 217.082 L 176.800 217.321 176.800 223.032 C 176.800 227.690,176.684 228.859,176.171 229.371 C 175.362 230.181,167.338 230.285,166.278 229.500 C 165.382 228.837,165.160 192.812,166.046 191.745 C 166.607 191.068,179.418 191.174,184.000 191.894 M211.626 191.614 C 212.401 192.028,212.898 227.436,212.157 229.367 C 211.821 230.245,202.356 230.310,201.633 229.440 C 200.992 228.668,201.014 192.506,201.656 191.732 C 202.200 191.077,210.441 190.980,211.626 191.614 M139.949 202.201 C 138.961 205.837,137.864 210.051,137.371 212.100 L 137.107 213.200 140.208 213.200 L 143.309 213.200 143.051 211.319 C 142.800 209.488,142.375 207.857,141.510 205.400 C 141.277 204.740,140.978 203.211,140.844 202.001 L 140.600 199.802 139.949 202.201 M176.800 204.225 L 176.800 208.049 178.700 207.781 C 183.712 207.073,183.532 200.435,178.500 200.409 L 176.800 200.400 176.800 204.225 " stroke="none" fill="#13222b" fill-rule="evenodd"></path><path id="path1" d="M94.400 121.183 C 92.116 121.529,89.305 122.514,87.559 123.581 C 86.811 124.038,85.930 124.511,85.600 124.633 C 85.270 124.755,84.190 125.923,83.200 127.230 C 82.210 128.536,81.199 129.837,80.953 130.121 C 80.707 130.405,80.380 131.079,80.228 131.619 C 80.075 132.158,79.801 132.960,79.619 133.400 C 78.464 136.195,78.400 139.670,78.400 199.964 C 78.400 262.174,78.446 264.309,79.842 267.460 C 80.149 268.154,80.400 268.842,80.400 268.989 C 80.400 269.136,80.625 269.513,80.900 269.826 C 81.175 270.139,82.210 271.465,83.200 272.772 C 84.190 274.079,85.364 275.243,85.808 275.359 C 86.252 275.474,86.972 275.898,87.408 276.301 C 87.844 276.703,89.433 277.447,90.939 277.954 L 93.678 278.875 178.139 278.855 C 233.380 278.842,263.323 278.695,264.689 278.430 C 270.648 277.275,276.978 271.022,277.811 265.467 L 278.091 263.600 273.645 263.600 C 270.636 263.600,269.200 263.744,269.200 264.047 C 269.200 264.293,268.660 265.109,268.000 265.861 C 267.340 266.613,266.800 267.389,266.800 267.585 C 266.800 267.781,265.765 268.450,264.500 269.071 L 262.200 270.200 179.037 270.305 C 105.385 270.397,95.768 270.340,94.951 269.805 C 94.443 269.472,93.748 269.200,93.405 269.200 C 92.492 269.200,89.600 267.184,89.600 266.547 C 89.600 266.246,89.433 266.000,89.229 266.000 C 87.591 266.000,87.600 266.334,87.600 207.139 L 87.600 150.800 178.300 150.806 C 228.185 150.809,269.215 150.949,269.477 151.116 C 269.740 151.283,270.010 152.495,270.077 153.810 L 270.200 156.200 274.200 156.066 C 276.400 155.992,278.271 155.861,278.358 155.774 C 278.880 155.255,278.454 135.661,277.884 133.983 C 275.392 126.655,269.767 122.076,262.200 121.216 C 258.147 120.756,97.433 120.724,94.400 121.183 M247.726 132.449 C 252.609 134.958,250.827 140.831,245.042 141.296 C 242.869 141.470,226.670 141.445,223.531 141.262 C 219.686 141.038,218.661 134.419,222.197 132.652 C 223.730 131.886,246.282 131.707,247.726 132.449 M261.160 132.700 C 263.998 134.322,263.763 139.169,260.771 140.716 C 255.593 143.393,251.236 137.605,255.179 133.287 C 256.570 131.765,259.091 131.517,261.160 132.700 M269.870 163.529 C 269.391 163.622,269.200 164.070,269.200 165.102 C 269.200 171.091,268.120 174.800,266.375 174.800 C 265.755 174.800,265.145 174.966,265.019 175.169 C 264.894 175.372,264.214 175.665,263.509 175.820 C 262.803 175.975,261.950 176.250,261.613 176.431 C 261.276 176.613,260.280 177.070,259.400 177.448 C 258.520 177.825,257.530 178.349,257.200 178.611 C 256.087 179.494,254.845 179.550,253.842 178.761 C 253.309 178.343,252.782 178.000,252.671 178.000 C 252.465 178.000,251.509 177.233,248.808 174.900 C 246.696 173.075,246.430 173.169,242.299 177.192 L 238.610 180.784 239.338 182.137 C 239.739 182.881,240.862 184.399,241.833 185.510 C 242.805 186.620,243.600 187.706,243.600 187.922 C 243.600 188.138,243.870 188.418,244.200 188.545 C 244.872 188.803,245.019 190.617,244.399 191.001 C 244.032 191.228,243.327 192.664,241.752 196.400 C 241.427 197.170,240.990 198.113,240.781 198.495 C 240.571 198.877,240.400 199.800,240.400 200.546 C 240.400 202.480,239.746 202.818,235.118 203.272 C 229.496 203.823,229.329 203.868,229.053 204.896 C 228.920 205.393,228.808 207.912,228.805 210.492 L 228.800 215.185 229.900 215.399 C 230.505 215.516,231.768 215.790,232.706 216.006 C 233.644 216.223,235.573 216.400,236.992 216.400 C 239.907 216.400,240.400 216.830,240.400 219.374 C 240.400 220.158,240.573 220.800,240.785 220.800 C 240.996 220.800,241.354 221.475,241.580 222.300 C 241.807 223.125,242.624 225.026,243.396 226.524 C 245.039 229.713,245.118 230.527,243.900 231.719 C 243.405 232.204,242.592 233.140,242.093 233.800 C 241.594 234.460,240.659 235.688,240.016 236.528 C 238.482 238.532,238.896 239.251,245.066 245.300 C 246.527 246.732,245.613 247.213,253.600 240.812 C 254.969 239.715,255.548 239.786,258.189 241.376 C 259.446 242.133,260.996 242.867,261.633 243.007 C 262.270 243.147,262.894 243.428,263.019 243.631 C 263.145 243.834,263.606 244.000,264.046 244.000 C 264.485 244.000,265.621 244.354,266.570 244.786 C 268.486 245.659,268.476 245.628,269.063 252.800 C 269.198 254.450,269.509 255.932,269.754 256.094 C 270.571 256.632,280.410 256.456,280.560 255.900 C 281.098 253.915,281.726 250.184,281.890 248.000 C 282.099 245.220,283.272 244.000,285.736 244.000 C 286.233 244.000,286.811 243.843,287.020 243.651 C 287.229 243.460,288.441 242.983,289.713 242.593 C 290.985 242.202,292.122 241.726,292.240 241.535 C 292.783 240.657,295.182 240.038,296.133 240.531 C 297.175 241.072,301.323 244.428,301.533 244.900 C 301.607 245.065,301.862 245.200,302.102 245.200 C 302.341 245.200,302.854 245.487,303.242 245.838 C 303.900 246.434,304.195 246.239,307.606 242.950 C 311.776 238.931,311.885 238.502,309.506 235.460 C 308.791 234.547,308.077 233.620,307.917 233.400 C 307.758 233.180,307.082 232.346,306.414 231.547 C 305.072 229.941,304.962 229.508,305.700 228.729 C 306.528 227.854,308.295 224.289,308.588 222.905 C 308.738 222.192,309.028 221.506,309.231 221.381 C 309.434 221.255,309.600 220.805,309.600 220.379 C 309.600 219.954,309.905 218.902,310.278 218.042 L 310.955 216.478 313.978 216.263 C 316.768 216.065,318.367 215.853,320.700 215.371 C 321.576 215.190,321.600 215.050,321.600 210.139 C 321.600 203.918,321.542 203.839,316.708 203.460 C 310.864 203.002,309.600 202.325,309.600 199.650 C 309.600 198.988,309.420 198.336,309.200 198.200 C 308.980 198.064,308.800 197.679,308.800 197.345 C 308.800 197.010,307.988 195.101,306.995 193.103 C 305.462 190.019,305.266 189.364,305.695 188.770 C 305.973 188.386,307.344 186.671,308.741 184.960 C 312.077 180.877,312.059 181.191,309.142 178.177 C 307.744 176.731,306.540 175.381,306.467 175.175 C 306.393 174.969,306.078 174.800,305.767 174.800 C 305.455 174.800,305.200 174.626,305.200 174.414 C 305.200 172.416,302.136 173.910,297.484 178.176 C 296.005 179.532,293.994 179.541,292.236 178.200 C 291.514 177.650,290.716 177.200,290.461 177.200 C 290.206 177.200,289.325 176.840,288.504 176.400 C 287.684 175.960,286.705 175.600,286.330 175.600 C 285.954 175.600,285.536 175.420,285.400 175.200 C 285.264 174.980,284.634 174.800,284.000 174.800 C 282.625 174.800,282.318 174.379,281.960 172.002 C 280.890 164.889,280.626 163.596,280.238 163.567 C 278.741 163.453,270.423 163.423,269.870 163.529 M282.400 183.638 C 285.170 184.599,290.332 187.245,290.551 187.816 C 290.674 188.137,291.021 188.400,291.322 188.400 C 292.001 188.400,296.785 193.337,297.814 195.100 C 298.231 195.815,298.714 196.400,298.886 196.400 C 299.059 196.400,299.200 196.762,299.200 197.205 C 299.200 197.648,299.371 198.323,299.581 198.705 C 302.483 204.003,303.106 213.980,300.791 218.095 C 300.576 218.477,300.400 218.989,300.400 219.234 C 300.400 220.944,294.850 229.200,293.700 229.200 C 293.425 229.200,293.200 229.347,293.200 229.527 C 293.200 231.296,283.979 235.820,279.170 236.411 C 274.257 237.014,266.929 236.402,266.527 235.355 C 266.410 235.050,265.988 234.800,265.590 234.800 C 264.758 234.800,261.375 233.163,259.249 231.731 C 257.942 230.850,257.107 230.023,254.273 226.800 C 253.196 225.575,251.164 222.290,250.314 220.400 C 249.968 219.630,249.440 218.478,249.142 217.839 C 248.402 216.254,248.366 203.074,249.100 202.340 C 249.375 202.065,249.600 201.519,249.600 201.126 C 249.600 200.345,251.890 195.719,252.697 194.871 C 252.974 194.581,253.200 194.187,253.200 193.997 C 253.200 193.456,257.632 189.089,259.297 187.989 C 260.121 187.445,260.796 186.865,260.797 186.700 C 260.799 186.535,260.990 186.400,261.222 186.400 C 261.455 186.400,262.670 185.896,263.922 185.280 C 265.175 184.663,267.280 183.923,268.600 183.635 C 269.920 183.346,271.180 183.042,271.400 182.958 C 272.255 182.633,281.076 183.178,282.400 183.638 M138.100 191.897 C 139.585 191.974,142.015 191.974,143.500 191.897 C 144.985 191.820,143.770 191.757,140.800 191.757 C 137.830 191.757,136.615 191.820,138.100 191.897 M170.300 192.298 C 172.335 192.371,175.665 192.371,177.700 192.298 C 179.735 192.225,178.070 192.166,174.000 192.166 C 169.930 192.166,168.265 192.225,170.300 192.298 M202.260 192.300 C 202.158 192.465,203.542 192.552,205.337 192.492 C 211.217 192.298,211.882 192.141,207.124 192.070 C 204.552 192.031,202.363 192.135,202.260 192.300 M185.200 193.000 C 185.750 193.314,186.380 193.572,186.600 193.572 C 186.820 193.572,186.550 193.314,186.000 193.000 C 185.450 192.686,184.820 192.428,184.600 192.428 C 184.380 192.428,184.650 192.686,185.200 193.000 M202.183 210.600 C 202.183 220.060,202.236 223.873,202.300 219.073 C 202.364 214.273,202.363 206.533,202.299 201.873 C 202.236 197.213,202.183 201.140,202.183 210.600 M211.784 211.200 C 211.784 220.990,211.836 224.995,211.900 220.100 C 211.963 215.205,211.963 207.195,211.900 202.300 C 211.836 197.405,211.784 201.410,211.784 211.200 M166.180 208.600 C 166.180 216.080,166.234 219.083,166.299 215.274 C 166.365 211.465,166.365 205.345,166.299 201.674 C 166.233 198.003,166.179 201.120,166.180 208.600 M177.500 199.882 C 177.995 199.978,178.805 199.978,179.300 199.882 C 179.795 199.787,179.390 199.709,178.400 199.709 C 177.410 199.709,177.005 199.787,177.500 199.882 M175.769 200.535 C 175.656 200.830,175.619 202.495,175.686 204.235 L 175.808 207.400 176.004 203.699 C 176.199 200.018,176.162 199.513,175.769 200.535 M192.928 204.000 C 192.928 205.430,193.001 206.015,193.089 205.300 C 193.178 204.585,193.178 203.415,193.089 202.700 C 193.001 201.985,192.928 202.570,192.928 204.000 M187.800 214.235 L 186.600 215.266 187.900 214.406 C 188.615 213.933,189.200 213.468,189.200 213.373 C 189.200 213.073,189.031 213.178,187.800 214.235 M138.700 214.289 C 139.415 214.378,140.585 214.378,141.300 214.289 C 142.015 214.201,141.430 214.128,140.000 214.128 C 138.570 214.128,137.985 214.201,138.700 214.289 M176.061 216.927 C 175.804 217.236,175.577 219.752,175.512 223.027 L 175.400 228.600 171.200 228.822 L 167.000 229.043 171.020 229.122 C 176.206 229.223,176.000 229.487,176.000 222.740 C 176.000 217.924,176.087 217.189,176.700 216.832 C 177.085 216.608,177.197 216.419,176.949 216.412 C 176.701 216.405,176.301 216.637,176.061 216.927 M153.800 228.800 L 149.000 229.039 153.676 229.120 C 156.453 229.167,158.453 229.037,158.600 228.800 C 158.736 228.580,158.792 228.436,158.724 228.480 C 158.656 228.525,156.440 228.669,153.800 228.800 M124.900 229.096 C 126.165 229.175,128.235 229.175,129.500 229.096 C 130.765 229.016,129.730 228.951,127.200 228.951 C 124.670 228.951,123.635 229.016,124.900 229.096 M204.915 229.096 C 206.188 229.176,208.168 229.175,209.315 229.094 C 210.462 229.014,209.420 228.949,207.000 228.950 C 204.580 228.951,203.642 229.016,204.915 229.096 " stroke="none" fill="#2ab99f" fill-rule="evenodd"></path><path id="path2" d="M133.900 192.557 C 133.594 192.863,132.576 195.518,131.636 198.457 C 130.697 201.395,129.765 204.113,129.565 204.495 C 129.364 204.877,129.199 205.507,129.198 205.895 C 129.196 206.283,128.926 207.116,128.598 207.746 C 128.269 208.376,128.000 209.285,128.000 209.766 C 128.000 210.247,127.849 210.811,127.664 211.020 C 127.478 211.229,126.927 212.660,126.439 214.200 C 125.951 215.740,125.397 217.360,125.210 217.800 C 125.022 218.240,124.662 219.410,124.410 220.400 C 123.734 223.056,123.328 224.402,122.620 226.327 C 121.737 228.729,121.867 228.800,127.147 228.800 L 131.846 228.800 132.523 227.266 C 132.895 226.422,133.200 225.335,133.200 224.852 C 133.200 222.294,133.950 222.000,140.466 222.000 L 146.441 222.000 146.984 223.300 C 147.282 224.015,147.657 225.320,147.815 226.200 C 148.275 228.747,148.393 228.800,153.582 228.800 C 158.932 228.800,158.971 228.784,158.184 226.900 C 157.863 226.131,157.600 225.185,157.600 224.797 C 157.600 224.409,157.331 223.576,157.002 222.946 C 156.674 222.316,156.404 221.506,156.402 221.146 C 156.401 220.786,156.131 219.976,155.802 219.346 C 155.474 218.716,155.204 217.831,155.202 217.380 C 155.201 216.929,155.057 216.389,154.882 216.180 C 154.707 215.971,154.240 214.720,153.843 213.400 C 153.446 212.080,152.869 210.409,152.561 209.686 C 152.252 208.964,152.000 208.130,152.000 207.832 C 152.000 207.535,151.731 206.776,151.402 206.146 C 151.074 205.516,150.804 204.631,150.802 204.180 C 150.801 203.729,150.657 203.189,150.482 202.980 C 150.307 202.771,149.843 201.520,149.451 200.200 C 149.059 198.880,148.482 197.290,148.169 196.668 C 147.856 196.045,147.600 195.023,147.600 194.396 C 147.600 192.217,146.949 192.000,140.400 192.000 C 135.856 192.000,134.326 192.131,133.900 192.557 M166.381 192.552 C 166.281 192.652,166.290 200.803,166.400 210.666 L 166.600 228.600 171.000 228.600 L 175.400 228.600 175.512 223.027 C 175.645 216.372,175.564 216.503,179.725 216.290 C 187.040 215.917,190.465 213.574,192.365 207.640 C 193.235 204.923,192.642 199.077,191.344 197.569 C 191.045 197.221,190.796 196.771,190.791 196.569 C 190.780 196.070,187.734 193.937,186.002 193.216 C 184.667 192.660,166.876 192.058,166.381 192.552 M202.394 192.600 C 202.390 192.710,202.384 200.855,202.380 210.700 L 202.373 228.600 206.987 228.713 L 211.600 228.825 211.605 211.513 C 211.608 201.991,211.719 193.795,211.852 193.300 C 212.093 192.403,212.078 192.400,207.247 192.400 C 204.581 192.400,202.397 192.490,202.394 192.600 M141.789 203.000 C 142.166 204.760,142.727 206.791,143.037 207.514 C 143.347 208.236,143.600 209.325,143.600 209.934 C 143.600 210.542,143.794 211.234,144.031 211.471 C 144.268 211.708,144.403 212.419,144.331 213.051 L 144.200 214.200 140.400 214.200 L 136.600 214.200 136.636 212.600 C 136.656 211.720,136.867 210.460,137.104 209.800 C 137.566 208.515,138.288 205.641,138.831 202.929 C 139.907 197.549,140.626 197.566,141.789 203.000 M180.984 200.219 C 184.120 201.707,183.817 206.830,180.511 208.212 C 178.892 208.888,176.792 209.090,176.063 208.639 C 175.239 208.130,175.449 200.528,176.300 200.032 C 177.336 199.429,179.501 199.515,180.984 200.219 " stroke="none" fill="#edeff0" fill-rule="evenodd"></path><path id="path3" d="M91.800 120.485 C 85.186 122.691,80.178 127.528,78.278 133.546 C 77.243 136.824,77.234 263.132,78.268 266.454 C 80.169 272.559,85.162 277.352,91.800 279.443 C 98.211 281.462,268.000 280.422,268.000 278.363 C 268.000 278.163,268.338 278.000,268.751 278.000 C 269.164 278.000,269.726 277.730,270.000 277.400 C 270.274 277.070,270.719 276.800,270.990 276.800 C 273.904 276.800,280.119 266.061,278.957 263.033 C 278.227 261.130,267.600 262.543,267.600 264.543 C 267.600 264.909,266.912 265.782,265.496 267.213 C 263.463 269.267,265.146 269.231,177.000 269.111 C 84.503 268.986,93.017 269.304,90.299 265.872 L 89.000 264.232 88.896 207.915 L 88.792 151.598 178.696 151.699 L 268.600 151.800 268.718 154.272 C 268.830 156.598,268.901 156.758,269.918 156.971 C 271.331 157.267,278.893 157.037,279.469 156.681 C 280.057 156.317,279.913 137.782,279.300 135.000 C 278.011 129.144,270.473 120.800,266.471 120.800 C 266.018 120.800,265.536 120.620,265.400 120.400 C 265.059 119.847,93.460 119.932,91.800 120.485 M264.986 121.013 C 271.910 122.817,277.700 129.072,278.830 135.969 C 279.236 138.451,279.328 154.081,278.945 155.512 C 278.706 156.404,278.596 156.422,274.050 156.312 L 269.400 156.200 269.200 153.800 L 269.000 151.400 178.600 151.400 L 88.200 151.400 88.099 207.048 C 87.986 268.895,87.780 264.180,90.722 267.122 C 93.558 269.958,87.294 269.768,178.200 269.785 C 242.058 269.797,260.672 269.690,262.332 269.304 C 264.661 268.763,266.800 267.465,266.800 266.593 C 266.800 266.289,267.029 265.896,267.310 265.720 C 267.590 265.544,268.134 264.905,268.519 264.300 C 269.358 262.980,278.169 262.532,278.650 263.785 C 279.730 266.601,274.154 274.514,269.110 277.321 C 264.763 279.741,270.360 279.600,178.372 279.600 L 94.260 279.600 91.250 278.561 C 84.545 276.247,80.166 271.671,78.654 265.400 C 77.761 261.695,77.835 137.148,78.733 134.000 C 80.381 128.216,85.056 123.476,91.167 121.392 L 93.800 120.494 178.216 120.447 C 252.869 120.405,262.904 120.471,264.986 121.013 M257.000 132.564 C 253.116 134.268,253.163 139.310,257.077 140.737 C 260.608 142.024,263.288 138.792,262.219 134.534 C 261.811 132.909,258.802 131.774,257.000 132.564 M222.600 133.074 C 219.841 134.551,220.007 139.366,222.851 140.358 C 225.611 141.320,246.484 140.933,248.030 139.891 C 250.778 138.039,250.422 134.237,247.382 132.967 C 245.273 132.085,224.278 132.176,222.600 133.074 M260.400 133.521 C 262.800 134.691,262.487 140.000,260.018 140.000 C 259.656 140.000,259.144 140.216,258.880 140.480 C 258.507 140.853,258.293 140.853,257.920 140.480 C 257.656 140.216,257.156 140.000,256.809 140.000 C 254.420 140.000,254.079 135.245,256.359 133.713 C 257.962 132.636,258.530 132.609,260.400 133.521 M248.364 134.167 C 249.574 135.262,249.312 138.281,247.917 139.322 C 246.211 140.596,223.552 140.470,222.178 139.180 C 220.745 137.833,220.795 135.177,222.275 134.013 C 223.854 132.770,246.973 132.907,248.364 134.167 M269.365 162.576 C 268.587 163.145,267.633 167.430,267.614 170.438 C 267.597 173.151,267.132 173.661,263.800 174.616 C 262.480 174.995,259.990 176.010,258.266 176.874 L 255.132 178.443 253.721 177.322 C 252.945 176.705,251.925 175.937,251.455 175.616 C 250.985 175.295,249.924 174.440,249.099 173.716 C 246.690 171.604,246.087 171.836,241.100 176.805 C 236.708 181.180,236.712 181.241,241.797 187.164 C 243.750 189.440,243.923 190.529,242.569 192.031 C 242.256 192.379,242.000 192.868,242.000 193.119 C 242.000 193.370,241.631 194.284,241.179 195.150 C 240.728 196.017,240.037 197.867,239.644 199.263 L 238.929 201.800 236.165 202.054 C 234.644 202.194,232.631 202.517,231.691 202.772 C 230.751 203.027,229.812 203.131,229.605 203.003 C 227.534 201.723,226.465 214.325,228.500 216.023 C 228.995 216.436,229.940 216.778,230.600 216.784 C 235.979 216.832,239.600 218.120,239.600 219.986 C 239.600 220.569,239.864 221.396,240.187 221.824 C 240.510 222.251,240.780 222.895,240.787 223.256 C 240.794 223.617,241.430 225.187,242.200 226.745 C 243.802 229.986,243.862 230.375,242.900 231.284 C 242.515 231.647,241.808 232.452,241.329 233.072 C 240.849 233.693,239.814 234.982,239.029 235.938 C 237.313 238.024,237.235 239.088,238.700 240.428 C 239.305 240.982,240.734 242.417,241.876 243.617 C 246.256 248.221,246.112 248.202,250.386 244.724 C 251.551 243.776,253.117 242.589,253.864 242.087 L 255.224 241.173 256.912 241.977 C 257.840 242.419,258.870 242.949,259.200 243.156 C 260.117 243.731,263.602 245.072,265.470 245.570 C 267.336 246.067,267.365 246.134,267.804 251.000 C 268.365 257.204,268.344 257.186,275.274 257.195 C 281.816 257.202,281.868 257.173,282.181 253.324 C 282.321 251.606,282.652 249.219,282.918 248.020 L 283.400 245.840 285.800 245.133 C 287.120 244.744,288.560 244.251,289.000 244.038 C 289.440 243.825,290.250 243.524,290.800 243.369 C 291.350 243.214,292.427 242.662,293.193 242.144 C 295.169 240.805,295.457 240.939,301.466 246.005 C 303.125 247.404,303.991 247.703,304.714 247.128 C 307.448 244.952,312.400 239.504,312.400 238.673 C 312.400 237.870,308.203 231.461,307.252 230.812 C 306.507 230.303,306.495 229.188,307.222 228.262 C 307.650 227.719,308.000 227.009,308.000 226.686 C 308.000 226.363,308.270 225.874,308.600 225.600 C 308.930 225.326,309.200 224.710,309.200 224.231 C 309.200 223.752,309.392 223.168,309.627 222.933 C 309.862 222.698,310.381 221.447,310.780 220.153 L 311.507 217.800 314.453 217.325 C 316.074 217.064,318.309 216.839,319.420 216.825 C 322.357 216.789,322.400 216.690,322.400 209.929 C 322.400 203.896,321.744 201.922,320.080 202.951 C 319.885 203.071,319.031 202.978,318.183 202.744 C 317.335 202.510,315.467 202.202,314.033 202.059 L 311.424 201.800 310.605 199.000 C 310.154 197.460,309.126 194.850,308.320 193.200 C 307.514 191.550,306.797 190.003,306.727 189.763 C 306.657 189.523,307.905 187.748,309.500 185.819 C 313.524 180.953,313.512 180.842,308.422 175.841 C 303.719 171.221,304.172 171.240,299.115 175.449 C 295.132 178.765,295.075 178.783,293.038 177.400 C 292.228 176.850,291.329 176.400,291.042 176.400 C 290.754 176.400,289.674 175.951,288.642 175.402 C 287.610 174.853,286.071 174.293,285.223 174.157 C 283.199 173.834,282.500 172.241,282.294 167.482 C 282.072 162.357,281.879 162.212,275.186 162.158 C 271.836 162.130,269.772 162.279,269.365 162.576 M280.353 163.199 C 281.232 163.664,281.987 166.385,281.994 169.113 C 282.002 172.668,282.734 174.224,284.559 174.566 C 286.343 174.901,291.428 177.033,292.862 178.048 C 295.008 179.568,295.418 179.374,302.334 173.582 C 303.809 172.347,304.281 172.578,308.254 176.474 C 312.813 180.945,312.806 180.857,309.000 185.496 C 305.458 189.812,305.559 189.137,307.791 193.582 C 308.776 195.544,309.705 197.925,309.854 198.874 C 310.285 201.614,310.932 202.297,313.323 202.537 C 316.216 202.826,320.900 203.735,321.500 204.124 C 321.859 204.356,322.000 205.949,322.000 209.762 C 322.000 216.404,322.175 216.199,316.200 216.565 C 313.620 216.723,311.613 217.035,311.347 217.317 C 310.819 217.880,309.206 222.103,308.914 223.687 C 308.803 224.285,308.463 224.982,308.156 225.236 C 307.850 225.490,307.600 225.963,307.600 226.286 C 307.600 226.609,307.240 227.331,306.800 227.891 C 306.360 228.450,306.000 229.216,306.000 229.592 C 306.000 229.968,306.360 230.602,306.800 231.000 C 307.240 231.398,307.600 231.938,307.600 232.200 C 307.600 232.462,307.963 233.004,308.406 233.405 C 309.456 234.355,312.000 238.194,312.000 238.828 C 312.000 239.390,304.615 246.800,304.055 246.800 C 303.641 246.800,299.282 243.670,297.286 241.940 C 295.721 240.582,294.756 240.515,292.940 241.637 C 291.441 242.563,287.952 243.971,286.400 244.276 C 282.888 244.967,282.474 245.492,281.987 249.880 C 281.772 251.816,281.487 254.075,281.354 254.900 L 281.112 256.400 276.456 256.442 C 271.505 256.487,269.493 256.414,269.250 256.179 C 269.069 256.003,268.428 251.468,268.140 248.320 C 267.905 245.753,267.720 245.535,265.200 244.852 C 264.210 244.583,263.040 244.199,262.600 243.999 C 262.160 243.799,261.170 243.361,260.400 243.025 C 259.630 242.690,258.373 242.052,257.606 241.607 C 255.312 240.278,254.416 240.533,251.119 243.452 C 250.305 244.173,248.923 245.237,248.049 245.815 L 246.459 246.867 245.129 245.934 C 244.398 245.420,243.736 244.854,243.658 244.675 C 243.580 244.496,242.369 243.146,240.967 241.675 C 237.780 238.332,237.778 238.378,241.400 234.026 C 244.928 229.787,244.792 230.525,242.800 226.449 C 241.920 224.648,241.200 222.945,241.200 222.664 C 241.200 222.383,240.936 221.804,240.613 221.376 C 240.290 220.949,240.020 220.125,240.013 219.544 C 239.986 217.338,239.024 216.842,234.200 216.546 C 227.997 216.165,228.027 216.195,228.018 210.400 C 228.009 203.627,228.169 203.487,237.000 202.534 C 239.523 202.261,239.838 201.991,240.132 199.844 C 240.264 198.882,240.828 197.237,241.386 196.188 C 241.944 195.139,242.400 194.046,242.400 193.758 C 242.400 193.471,242.850 192.572,243.400 191.762 C 244.703 189.841,244.677 189.631,242.871 187.556 C 240.980 185.384,238.000 181.336,238.000 180.941 C 238.000 180.780,239.731 178.972,241.847 176.924 C 246.267 172.646,246.721 172.511,249.361 174.700 C 250.356 175.525,251.582 176.512,252.085 176.893 C 252.588 177.275,253.455 177.932,254.012 178.353 L 255.024 179.120 258.412 177.492 C 260.275 176.597,263.040 175.468,264.555 174.984 C 267.718 173.973,267.833 173.833,268.152 170.600 C 268.570 166.362,269.135 163.487,269.608 163.195 C 270.216 162.819,279.641 162.823,280.353 163.199 M269.922 183.829 C 260.505 185.532,252.304 193.144,249.564 202.726 C 248.754 205.559,248.445 214.933,249.147 215.368 C 249.339 215.486,249.607 216.283,249.744 217.140 C 251.066 225.407,261.341 234.556,270.920 235.996 C 275.723 236.718,284.881 235.486,285.803 233.995 C 285.937 233.778,286.294 233.600,286.595 233.600 C 287.581 233.600,291.807 230.521,294.371 227.933 C 301.289 220.953,303.635 208.763,299.738 200.041 C 299.384 199.249,298.729 197.790,298.282 196.800 C 296.984 193.921,290.863 188.137,287.000 186.139 C 281.779 183.439,276.226 182.688,269.922 183.829 M277.767 183.947 C 277.886 184.138,279.111 184.412,280.491 184.555 C 286.215 185.148,295.650 192.077,297.982 197.400 C 298.464 198.500,299.115 199.967,299.429 200.660 C 299.743 201.354,300.000 202.378,300.000 202.937 C 300.000 203.496,300.180 204.064,300.400 204.200 C 302.189 205.306,300.525 216.682,297.770 222.182 C 295.657 226.400,288.541 233.200,286.240 233.200 C 285.976 233.200,285.571 233.389,285.339 233.621 C 284.613 234.347,280.741 235.199,277.000 235.454 C 253.071 237.089,239.925 208.560,256.779 191.569 C 260.917 187.396,265.614 184.922,270.113 184.544 C 271.825 184.400,273.320 184.129,273.436 183.941 C 273.713 183.493,277.490 183.498,277.767 183.947 M134.172 191.186 C 133.104 191.618,131.995 193.317,132.018 194.486 C 132.030 195.152,132.185 194.980,132.588 193.850 C 133.389 191.601,133.249 191.643,140.059 191.569 C 146.645 191.497,147.036 191.568,147.624 192.941 C 147.974 193.759,147.987 193.753,147.896 192.810 C 147.737 191.171,146.367 190.810,140.400 190.831 C 137.430 190.842,134.627 191.002,134.172 191.186 M166.016 191.781 C 165.158 192.815,165.408 228.856,166.278 229.500 C 167.338 230.285,175.362 230.181,176.171 229.371 C 176.685 228.858,176.800 227.686,176.800 222.989 L 176.800 217.235 179.500 217.091 L 182.200 216.948 179.400 216.974 L 176.600 217.000 176.488 222.582 C 176.345 229.746,176.595 229.459,170.730 229.200 L 166.200 229.000 166.000 210.800 C 165.890 200.790,165.945 192.420,166.122 192.200 C 166.318 191.957,169.612 191.801,174.508 191.802 C 178.943 191.802,182.038 191.689,181.386 191.549 C 178.757 190.985,166.523 191.170,166.016 191.781 M201.656 191.732 C 201.014 192.506,200.992 228.668,201.633 229.440 C 202.533 230.524,211.931 230.221,212.203 229.100 C 212.324 228.605,212.370 220.370,212.307 210.800 L 212.191 193.400 212.096 211.312 L 212.000 229.224 206.900 229.112 L 201.800 229.000 201.696 210.846 C 201.618 197.260,201.712 192.547,202.068 192.118 C 202.761 191.283,211.459 191.530,212.009 192.400 C 212.245 192.775,212.390 192.818,212.394 192.514 C 212.411 191.188,202.695 190.480,201.656 191.732 M185.800 192.682 C 187.977 193.555,191.018 195.883,191.574 197.103 C 191.825 197.653,192.133 198.000,192.259 197.875 C 193.215 196.918,187.001 191.961,184.920 192.021 C 184.524 192.032,184.920 192.330,185.800 192.682 M148.026 194.820 C 148.012 195.161,148.150 195.611,148.333 195.820 C 148.517 196.029,149.191 197.812,149.831 199.782 C 150.472 201.752,151.057 203.049,151.131 202.663 C 151.205 202.277,151.092 201.745,150.879 201.481 C 150.666 201.216,150.359 200.376,150.195 199.613 C 150.032 198.850,149.763 197.950,149.597 197.613 C 149.431 197.276,149.016 196.370,148.674 195.600 C 148.331 194.830,148.040 194.479,148.026 194.820 M131.265 196.617 C 131.009 197.178,130.800 197.969,130.800 198.373 C 130.800 198.778,130.531 199.624,130.202 200.254 C 129.874 200.884,129.608 201.670,129.611 202.000 C 129.615 202.330,129.974 201.815,130.409 200.856 C 130.844 199.897,131.200 198.760,131.200 198.330 C 131.200 197.900,131.395 197.184,131.632 196.739 C 131.870 196.295,131.989 195.856,131.897 195.764 C 131.805 195.672,131.521 196.056,131.265 196.617 M192.685 199.200 C 193.108 200.544,193.087 207.149,192.655 208.400 C 192.366 209.237,192.399 209.315,192.855 208.881 C 193.725 208.052,193.851 200.804,193.021 199.345 C 192.441 198.323,192.405 198.308,192.685 199.200 M139.800 201.200 C 139.425 202.329,139.210 203.343,139.321 203.454 C 139.432 203.566,139.802 202.705,140.143 201.543 C 140.947 198.799,140.685 198.536,139.800 201.200 M176.653 200.314 C 176.547 200.486,176.411 202.299,176.352 204.342 C 176.235 208.423,176.507 208.972,178.358 208.391 C 180.484 207.722,180.554 207.606,178.700 207.825 L 176.800 208.049 176.800 204.248 L 176.800 200.446 178.500 200.293 L 180.200 200.140 178.524 200.070 C 177.602 200.031,176.760 200.141,176.653 200.314 M140.884 202.000 C 140.853 202.990,141.086 204.250,141.400 204.800 C 141.763 205.435,141.977 205.573,141.986 205.180 C 141.994 204.839,141.831 204.389,141.625 204.180 C 141.419 203.971,141.181 202.990,141.095 202.000 L 140.940 200.200 140.884 202.000 M181.146 201.145 C 181.934 201.751,182.093 202.236,182.096 204.037 C 182.099 205.790,182.169 206.015,182.465 205.224 C 183.111 203.498,181.929 200.383,180.638 200.409 C 180.397 200.414,180.626 200.745,181.146 201.145 M129.000 203.600 C 128.850 204.073,128.817 204.550,128.927 204.660 C 129.037 204.770,129.250 204.473,129.400 204.000 C 129.550 203.527,129.583 203.050,129.473 202.940 C 129.363 202.830,129.150 203.127,129.000 203.600 M138.503 206.010 C 138.230 207.181,138.077 208.210,138.163 208.296 C 138.453 208.586,139.259 205.624,139.129 204.748 C 139.049 204.212,138.810 204.694,138.503 206.010 M151.217 204.400 C 151.231 205.117,152.365 207.200,152.386 206.546 C 152.394 206.296,152.131 205.576,151.802 204.946 C 151.474 204.316,151.210 204.070,151.217 204.400 M128.446 205.876 C 128.421 206.358,128.220 206.864,128.000 207.000 C 127.780 207.136,127.607 207.552,127.616 207.924 C 127.627 208.376,127.834 208.228,128.241 207.477 C 128.576 206.859,128.769 206.049,128.671 205.677 C 128.541 205.182,128.480 205.236,128.446 205.876 M142.161 207.200 C 142.571 209.313,143.119 210.972,143.153 210.200 C 143.172 209.760,142.913 208.680,142.578 207.800 C 142.242 206.920,142.055 206.650,142.161 207.200 M152.400 208.044 C 152.400 208.372,152.563 208.811,152.761 209.020 C 152.960 209.229,153.209 209.760,153.315 210.200 C 153.472 210.852,153.513 210.815,153.541 210.000 C 153.559 209.450,153.310 208.651,152.987 208.224 C 152.547 207.642,152.400 207.597,152.400 208.044 M126.885 210.173 C 126.618 210.759,126.407 211.544,126.416 211.919 C 126.424 212.293,126.699 211.984,127.026 211.230 C 127.727 209.614,127.594 208.617,126.885 210.173 M137.233 211.100 C 136.436 213.514,136.627 213.688,140.148 213.750 C 143.582 213.809,144.239 213.470,143.632 211.952 C 143.251 211.000,143.251 211.001,143.225 212.100 C 143.200 213.200,143.200 213.200,140.200 213.200 C 136.999 213.200,136.670 212.938,137.626 211.152 C 137.860 210.714,137.987 210.161,137.908 209.924 C 137.829 209.686,137.525 210.215,137.233 211.100 M153.620 211.200 C 153.616 211.310,153.871 212.120,154.188 213.000 C 154.505 213.880,154.766 214.240,154.768 213.800 C 154.771 213.135,153.645 210.585,153.620 211.200 M188.868 213.895 C 188.061 214.680,186.563 215.499,185.068 215.973 C 183.417 216.496,182.952 216.763,183.663 216.778 C 184.965 216.805,188.412 215.064,189.636 213.761 C 190.999 212.311,190.388 212.417,188.868 213.895 M125.787 213.621 C 125.626 213.881,125.359 214.658,125.193 215.347 C 125.028 216.036,124.769 216.960,124.618 217.400 C 124.435 217.936,124.547 217.870,124.958 217.200 C 125.296 216.650,125.578 215.831,125.586 215.380 C 125.594 214.929,125.813 214.347,126.073 214.087 C 126.334 213.826,126.442 213.508,126.313 213.380 C 126.185 213.252,125.948 213.360,125.787 213.621 M155.661 217.400 C 155.643 217.840,155.886 218.650,156.200 219.200 C 156.563 219.835,156.777 219.973,156.786 219.580 C 156.794 219.239,156.637 218.789,156.439 218.580 C 156.240 218.371,155.991 217.840,155.885 217.400 L 155.693 216.600 155.661 217.400 M123.637 220.280 C 123.335 221.336,122.830 222.982,122.515 223.938 C 122.200 224.894,122.018 225.752,122.111 225.844 C 122.351 226.084,124.485 219.255,124.322 218.766 C 124.248 218.543,123.939 219.224,123.637 220.280 M156.814 221.054 C 156.806 221.304,157.063 222.114,157.384 222.854 C 157.788 223.783,157.969 223.952,157.970 223.400 C 157.972 222.563,156.839 220.264,156.814 221.054 M134.064 223.419 C 133.809 223.979,133.614 224.744,133.630 225.119 C 133.647 225.493,133.876 225.206,134.139 224.480 C 134.402 223.754,134.884 222.992,135.209 222.786 C 135.720 222.463,135.714 222.411,135.164 222.406 C 134.815 222.403,134.320 222.858,134.064 223.419 M145.700 222.832 C 146.086 223.057,146.406 223.725,146.414 224.320 C 146.422 224.914,146.686 225.850,147.000 226.400 C 147.670 227.572,147.743 227.372,147.233 225.760 C 147.031 225.122,146.758 224.105,146.625 223.500 C 146.474 222.809,146.128 222.405,145.692 222.412 C 145.041 222.424,145.041 222.448,145.700 222.832 M158.045 224.600 C 158.081 225.494,159.140 227.782,159.155 227.000 C 159.164 226.560,158.914 225.750,158.600 225.200 C 158.286 224.650,158.036 224.380,158.045 224.600 M133.254 226.611 C 133.100 228.909,132.367 229.200,126.725 229.200 L 121.495 229.200 121.723 227.800 C 121.985 226.183,121.743 225.971,121.216 227.357 C 120.283 229.812,120.759 230.033,126.707 229.911 C 132.663 229.789,133.950 229.191,133.490 226.757 C 133.341 225.971,133.299 225.945,133.254 226.611 M147.600 228.509 C 147.600 229.658,149.010 230.000,153.741 230.000 C 158.943 230.000,159.600 229.852,159.600 228.681 C 159.600 227.892,159.572 227.886,159.071 228.570 C 158.317 229.601,148.885 229.549,148.100 228.509 C 147.635 227.893,147.600 227.893,147.600 228.509 " stroke="none" fill="#216862" fill-rule="evenodd"></path><path id="path4" d="M91.167 121.392 C 85.056 123.476,80.381 128.216,78.733 134.000 C 77.835 137.148,77.761 261.695,78.654 265.400 C 80.166 271.671,84.545 276.247,91.250 278.561 L 94.260 279.600 178.372 279.600 C 270.360 279.600,264.763 279.741,269.110 277.321 C 274.154 274.514,279.730 266.601,278.650 263.785 C 278.169 262.532,269.358 262.980,268.519 264.300 C 268.134 264.905,267.590 265.544,267.310 265.720 C 267.029 265.896,266.800 266.289,266.800 266.593 C 266.800 267.465,264.661 268.763,262.332 269.304 C 259.855 269.880,96.957 270.038,95.200 269.466 C 94.236 269.152,94.228 269.164,94.983 269.775 C 95.693 270.350,103.508 270.400,178.983 270.305 L 262.200 270.200 264.500 269.071 C 265.765 268.450,266.800 267.781,266.800 267.585 C 266.800 267.389,267.340 266.613,268.000 265.861 C 268.660 265.109,269.200 264.293,269.200 264.047 C 269.200 263.744,270.636 263.600,273.645 263.600 L 278.091 263.600 277.811 265.467 C 276.978 271.022,270.648 277.275,264.689 278.430 C 263.323 278.695,233.380 278.842,178.139 278.855 L 93.678 278.875 90.939 277.954 C 89.433 277.447,87.844 276.703,87.408 276.301 C 86.972 275.898,86.252 275.474,85.808 275.359 C 85.364 275.243,84.190 274.079,83.200 272.772 C 82.210 271.465,81.175 270.139,80.900 269.826 C 80.625 269.513,80.400 269.136,80.400 268.989 C 80.400 268.842,80.149 268.154,79.842 267.460 C 78.446 264.309,78.400 262.174,78.400 199.964 C 78.400 139.670,78.464 136.195,79.619 133.400 C 79.801 132.960,80.075 132.158,80.228 131.619 C 80.380 131.079,80.707 130.405,80.953 130.121 C 81.199 129.837,82.210 128.536,83.200 127.230 C 84.190 125.923,85.270 124.755,85.600 124.633 C 85.930 124.511,86.795 124.047,87.522 123.601 C 88.250 123.156,89.870 122.389,91.122 121.897 L 93.400 121.003 176.000 120.902 C 273.923 120.782,267.007 120.409,272.927 126.133 C 278.115 131.149,278.911 134.956,278.480 152.682 L 278.400 155.965 275.500 156.103 L 272.600 156.241 275.653 156.321 C 279.435 156.419,279.188 157.111,279.192 146.400 C 279.198 132.345,276.891 126.824,269.281 122.682 C 264.819 120.254,270.574 120.396,178.216 120.447 L 93.800 120.494 91.167 121.392 M222.197 132.652 C 218.661 134.419,219.686 141.038,223.531 141.262 C 226.670 141.445,242.869 141.470,245.042 141.296 C 250.827 140.831,252.609 134.958,247.726 132.449 C 246.282 131.707,223.730 131.886,222.197 132.652 M255.179 133.287 C 251.236 137.605,255.593 143.393,260.771 140.716 C 264.582 138.745,263.410 131.954,259.268 132.009 C 258.900 132.014,259.359 132.362,260.286 132.783 C 264.952 134.901,261.890 142.492,257.077 140.737 C 253.163 139.310,253.116 134.276,257.000 132.561 C 258.081 132.084,258.109 132.030,257.277 132.016 C 256.735 132.006,255.871 132.530,255.179 133.287 M247.382 132.967 C 250.422 134.237,250.778 138.039,248.030 139.891 C 246.484 140.933,225.611 141.320,222.851 140.358 C 220.007 139.366,219.841 134.551,222.600 133.074 C 224.278 132.176,245.273 132.085,247.382 132.967 M87.600 207.139 C 87.600 266.334,87.591 266.000,89.229 266.000 C 89.433 266.000,89.600 266.246,89.600 266.547 C 89.600 267.298,92.699 269.289,93.528 269.070 C 94.000 268.946,93.933 268.879,93.300 268.846 C 92.142 268.787,89.396 266.042,88.608 264.157 C 88.069 262.866,88.009 256.191,88.099 207.048 L 88.200 151.400 178.600 151.400 L 269.000 151.400 269.200 153.769 C 269.310 155.072,269.580 156.197,269.800 156.270 C 270.365 156.456,270.037 151.475,269.460 151.106 C 269.207 150.944,228.185 150.809,178.300 150.806 L 87.600 150.800 87.600 207.139 M269.590 163.206 C 269.327 163.369,271.426 163.506,274.256 163.512 C 277.085 163.517,279.697 163.539,280.061 163.561 C 280.565 163.591,280.788 164.177,281.004 166.031 C 281.439 169.786,281.924 171.089,281.960 168.600 C 281.992 166.348,281.186 163.639,280.353 163.199 C 279.629 162.816,270.211 162.822,269.590 163.206 M268.669 166.200 C 268.535 167.300,268.310 169.280,268.169 170.600 C 267.859 173.501,267.483 174.290,266.301 174.518 C 265.492 174.673,265.508 174.697,266.451 174.746 C 267.029 174.775,267.684 174.575,267.906 174.300 C 268.374 173.722,269.399 165.583,269.109 164.755 C 269.002 164.450,268.804 165.100,268.669 166.200 M282.016 172.526 C 281.986 173.882,282.774 174.803,283.914 174.746 C 284.904 174.696,284.918 174.675,284.067 174.513 C 283.495 174.404,282.921 173.845,282.583 173.068 C 282.235 172.269,282.026 172.069,282.016 172.526 M302.334 173.582 C 295.418 179.374,295.008 179.568,292.862 178.048 C 290.737 176.545,284.840 174.293,285.400 175.200 C 285.536 175.420,285.954 175.600,286.330 175.600 C 286.705 175.600,287.684 175.960,288.504 176.400 C 289.325 176.840,290.206 177.200,290.461 177.200 C 290.716 177.200,291.514 177.650,292.236 178.200 C 293.994 179.541,296.005 179.532,297.484 178.176 C 302.136 173.910,305.200 172.416,305.200 174.414 C 305.200 174.626,305.455 174.800,305.767 174.800 C 306.078 174.800,306.393 174.969,306.467 175.175 C 306.540 175.381,307.744 176.731,309.142 178.177 C 312.059 181.191,312.077 180.877,308.741 184.960 C 307.344 186.671,305.973 188.386,305.695 188.770 C 305.266 189.364,305.462 190.019,306.995 193.103 C 307.988 195.101,308.800 197.010,308.800 197.345 C 308.800 197.679,308.980 198.064,309.200 198.200 C 309.420 198.336,309.600 198.988,309.600 199.650 C 309.600 202.239,310.829 202.952,316.000 203.364 C 318.363 203.552,318.454 203.532,317.000 203.150 C 316.120 202.919,314.465 202.639,313.323 202.529 C 310.931 202.298,310.285 201.618,309.854 198.874 C 309.705 197.925,308.776 195.544,307.791 193.582 C 305.559 189.137,305.458 189.812,309.000 185.496 C 312.806 180.857,312.813 180.945,308.254 176.474 C 304.281 172.578,303.809 172.347,302.334 173.582 M241.847 176.924 C 239.731 178.972,238.000 180.782,238.000 180.945 C 238.000 181.363,242.124 186.883,242.933 187.549 C 244.162 188.561,243.617 187.548,241.833 185.510 C 240.862 184.399,239.739 182.881,239.338 182.137 L 238.610 180.784 242.299 177.192 C 246.430 173.169,246.696 173.075,248.808 174.900 C 251.509 177.233,252.465 178.000,252.671 178.000 C 252.782 178.000,253.309 178.343,253.842 178.761 C 254.845 179.550,256.087 179.494,257.200 178.611 C 257.530 178.349,258.520 177.825,259.400 177.448 C 260.280 177.070,261.313 176.590,261.695 176.381 C 262.077 176.171,262.560 176.000,262.769 176.000 C 263.475 176.000,265.312 175.179,265.094 174.961 C 264.835 174.702,260.531 176.387,257.339 177.997 L 255.059 179.147 254.030 178.367 C 253.463 177.938,252.588 177.275,252.085 176.893 C 251.582 176.512,250.356 175.525,249.361 174.700 C 246.721 172.511,246.267 172.646,241.847 176.924 M271.400 182.958 C 271.180 183.042,269.920 183.346,268.600 183.635 C 267.280 183.923,265.175 184.663,263.922 185.280 C 262.670 185.896,261.455 186.400,261.222 186.400 C 260.990 186.400,260.799 186.535,260.797 186.700 C 260.796 186.865,260.121 187.445,259.297 187.989 C 257.632 189.089,253.200 193.456,253.200 193.997 C 253.200 194.187,252.974 194.581,252.697 194.871 C 251.890 195.719,249.600 200.345,249.600 201.126 C 249.600 201.519,249.375 202.065,249.100 202.340 C 248.366 203.074,248.402 216.254,249.142 217.839 C 249.440 218.478,249.968 219.630,250.314 220.400 C 251.164 222.290,253.196 225.575,254.273 226.800 C 257.107 230.023,257.942 230.850,259.249 231.731 C 261.258 233.084,264.741 234.800,265.479 234.800 C 265.817 234.800,264.587 234.049,262.746 233.131 C 256.679 230.104,250.627 222.661,249.744 217.140 C 249.607 216.283,249.339 215.486,249.147 215.368 C 248.445 214.933,248.754 205.559,249.564 202.726 C 254.164 186.642,272.371 178.575,287.000 186.139 C 290.863 188.137,296.984 193.921,298.282 196.800 C 298.729 197.790,299.384 199.249,299.738 200.041 C 304.553 210.818,299.976 225.296,289.667 231.900 C 288.494 232.652,287.621 233.354,287.727 233.460 C 287.977 233.711,293.200 229.958,293.200 229.527 C 293.200 229.347,293.425 229.200,293.700 229.200 C 294.850 229.200,300.400 220.944,300.400 219.234 C 300.400 218.989,300.576 218.477,300.791 218.095 C 303.106 213.980,302.483 204.003,299.581 198.705 C 299.371 198.323,299.200 197.648,299.200 197.205 C 299.200 196.762,299.059 196.400,298.886 196.400 C 298.714 196.400,298.231 195.815,297.814 195.100 C 296.785 193.337,292.001 188.400,291.322 188.400 C 291.021 188.400,290.674 188.137,290.551 187.816 C 290.332 187.245,285.170 184.599,282.400 183.638 C 281.076 183.178,272.255 182.633,271.400 182.958 M243.959 188.947 C 244.409 189.492,244.424 189.829,244.037 190.679 C 243.604 191.630,243.620 191.682,244.198 191.202 C 244.973 190.558,244.841 188.741,244.000 188.466 C 243.482 188.297,243.476 188.362,243.959 188.947 M133.445 191.928 C 133.333 192.108,133.773 192.177,134.421 192.082 C 135.070 191.987,135.600 191.840,135.600 191.755 C 135.600 191.450,133.643 191.607,133.445 191.928 M170.319 191.898 C 172.144 191.972,175.024 191.972,176.719 191.897 C 178.414 191.822,176.920 191.761,173.400 191.762 C 169.880 191.762,168.494 191.824,170.319 191.898 M202.045 192.146 C 201.276 193.072,201.620 228.884,202.400 229.097 C 202.848 229.220,202.873 229.171,202.496 228.904 C 202.100 228.625,202.014 224.632,202.096 210.374 L 202.200 192.200 205.200 191.972 L 208.200 191.744 205.349 191.672 C 203.355 191.622,202.362 191.764,202.045 192.146 M208.900 191.876 C 209.285 191.976,209.915 191.976,210.300 191.876 C 210.685 191.775,210.370 191.693,209.600 191.693 C 208.830 191.693,208.515 191.775,208.900 191.876 M181.900 192.282 C 182.395 192.378,183.205 192.378,183.700 192.282 C 184.195 192.187,183.790 192.109,182.800 192.109 C 181.810 192.109,181.405 192.187,181.900 192.282 M242.873 192.487 C 242.613 192.747,242.401 193.329,242.402 193.780 C 242.405 194.458,242.509 194.400,243.010 193.440 C 243.673 192.169,243.612 191.748,242.873 192.487 M241.171 196.571 C 240.691 197.594,240.405 198.539,240.538 198.671 C 240.670 198.803,240.963 198.391,241.189 197.755 C 241.415 197.120,241.793 196.267,242.028 195.861 C 242.263 195.455,242.363 195.030,242.250 194.917 C 242.138 194.804,241.652 195.549,241.171 196.571 M192.456 199.600 C 192.456 199.930,192.611 200.560,192.800 201.000 C 193.017 201.504,193.144 201.578,193.144 201.200 C 193.144 200.870,192.989 200.240,192.800 199.800 C 192.583 199.296,192.456 199.222,192.456 199.600 M240.064 200.251 C 239.981 201.869,239.438 202.272,237.000 202.526 C 234.287 202.809,231.461 203.495,232.800 203.546 C 237.543 203.727,240.549 202.447,240.294 200.356 L 240.128 199.000 240.064 200.251 M176.169 200.537 C 176.055 200.833,176.018 202.408,176.086 204.037 L 176.209 207.000 176.404 203.499 C 176.599 200.011,176.560 199.517,176.169 200.537 M182.456 202.400 C 182.456 202.730,182.611 203.360,182.800 203.800 C 183.017 204.304,183.144 204.378,183.144 204.000 C 183.144 203.670,182.989 203.040,182.800 202.600 C 182.583 202.096,182.456 202.022,182.456 202.400 M228.749 204.260 C 228.362 204.725,228.168 206.411,228.091 209.960 C 227.961 215.926,228.341 216.558,231.904 216.313 L 233.800 216.183 232.200 215.868 C 228.305 215.103,228.722 215.866,228.869 209.769 C 228.972 205.507,229.126 204.290,229.600 203.991 C 229.930 203.783,229.997 203.609,229.749 203.606 C 229.501 203.603,229.051 203.897,228.749 204.260 M320.739 204.347 C 321.535 205.037,321.600 205.473,321.600 210.104 C 321.600 215.593,321.610 215.572,319.067 215.628 C 316.596 215.683,316.039 216.342,318.438 216.372 C 321.813 216.414,322.000 216.067,322.000 209.749 C 322.000 204.514,321.771 203.600,320.459 203.600 C 320.050 203.600,320.134 203.822,320.739 204.347 M143.790 212.266 C 143.964 212.888,143.777 213.311,143.127 213.766 C 142.629 214.115,142.429 214.400,142.682 214.400 C 143.862 214.400,144.636 212.954,143.968 212.000 C 143.635 211.525,143.598 211.581,143.790 212.266 M138.900 213.887 C 139.505 213.978,140.495 213.978,141.100 213.887 C 141.705 213.795,141.210 213.720,140.000 213.720 C 138.790 213.720,138.295 213.795,138.900 213.887 M124.865 217.417 C 124.609 217.978,124.407 218.654,124.416 218.919 C 124.424 219.183,124.697 218.788,125.022 218.039 C 125.705 216.465,125.561 215.890,124.865 217.417 M178.500 216.691 C 179.325 216.778,180.675 216.778,181.500 216.691 C 182.325 216.605,181.650 216.534,180.000 216.534 C 178.350 216.534,177.675 216.605,178.500 216.691 M236.892 216.694 C 238.982 216.859,239.990 217.794,240.013 219.589 C 240.020 220.145,240.290 220.949,240.613 221.376 C 240.936 221.804,241.200 222.383,241.200 222.664 C 241.200 222.945,241.920 224.648,242.800 226.449 C 244.792 230.525,244.928 229.787,241.400 234.026 C 237.778 238.378,237.780 238.332,240.967 241.675 C 242.369 243.146,243.580 244.496,243.658 244.675 C 243.736 244.854,244.398 245.420,245.129 245.934 L 246.459 246.867 248.049 245.815 C 248.923 245.237,250.305 244.173,251.119 243.452 C 254.416 240.533,255.312 240.278,257.606 241.607 C 258.373 242.052,259.630 242.690,260.400 243.025 C 261.170 243.361,262.160 243.795,262.600 243.990 C 264.155 244.679,266.457 245.277,266.682 245.051 C 266.967 244.766,265.011 244.000,263.998 244.000 C 263.585 244.000,263.145 243.834,263.019 243.631 C 262.894 243.428,262.270 243.147,261.633 243.007 C 260.996 242.867,259.446 242.133,258.189 241.376 C 255.548 239.786,254.969 239.715,253.600 240.812 C 245.613 247.213,246.527 246.732,245.066 245.300 C 238.896 239.251,238.482 238.532,240.016 236.528 C 240.659 235.688,241.594 234.460,242.093 233.800 C 242.592 233.140,243.405 232.204,243.900 231.719 C 245.118 230.527,245.039 229.713,243.396 226.524 C 242.624 225.026,241.807 223.125,241.580 222.300 C 241.354 221.475,240.996 220.800,240.785 220.800 C 240.573 220.800,240.400 220.158,240.400 219.374 C 240.400 216.870,239.885 216.390,237.286 216.472 C 235.022 216.544,235.018 216.546,236.892 216.694 M310.294 218.003 C 309.912 218.884,309.600 219.877,309.600 220.208 C 309.600 220.540,309.421 221.123,309.203 221.505 C 308.388 222.930,307.647 225.659,308.198 225.201 C 308.481 224.966,308.803 224.285,308.914 223.687 C 309.171 222.293,310.790 217.947,311.285 217.321 C 311.493 217.057,312.504 216.774,313.532 216.693 L 315.400 216.544 313.194 216.472 L 310.989 216.400 310.294 218.003 M176.267 217.067 C 176.120 217.213,176.000 219.764,176.000 222.735 C 176.000 227.296,175.891 228.266,175.300 228.969 C 174.603 229.796,174.604 229.796,175.480 229.056 C 176.192 228.454,177.226 216.787,176.567 216.799 C 176.548 216.800,176.413 216.920,176.267 217.067 M137.282 222.296 C 138.758 222.373,141.278 222.373,142.882 222.297 C 144.487 222.221,143.280 222.158,140.200 222.158 C 137.120 222.157,135.807 222.219,137.282 222.296 M166.101 223.400 C 166.105 224.280,166.187 224.593,166.283 224.095 C 166.379 223.598,166.375 222.878,166.275 222.495 C 166.175 222.113,166.096 222.520,166.101 223.400 M146.856 224.400 C 146.856 224.730,147.011 225.360,147.200 225.800 C 147.417 226.304,147.544 226.378,147.544 226.000 C 147.544 225.670,147.389 225.040,147.200 224.600 C 146.983 224.096,146.856 224.022,146.856 224.400 M306.871 226.835 C 306.581 227.299,306.421 227.755,306.515 227.849 C 306.793 228.126,307.688 226.864,307.537 226.410 C 307.460 226.180,307.160 226.371,306.871 226.835 M132.294 228.103 L 131.588 229.400 132.394 228.456 C 133.080 227.652,133.446 226.794,133.100 226.803 C 133.045 226.804,132.682 227.389,132.294 228.103 M305.396 229.212 C 305.215 229.784,305.506 230.464,306.383 231.512 C 307.068 232.330,307.758 233.180,307.917 233.400 C 308.077 233.620,308.791 234.547,309.506 235.460 C 311.885 238.502,311.776 238.931,307.606 242.950 C 304.195 246.239,303.900 246.434,303.242 245.838 C 302.854 245.487,302.341 245.200,302.102 245.200 C 301.862 245.200,301.607 245.065,301.533 244.900 C 301.323 244.428,297.175 241.072,296.133 240.531 C 295.182 240.038,292.783 240.657,292.240 241.535 C 292.122 241.726,290.985 242.202,289.713 242.593 C 288.441 242.983,287.229 243.460,287.020 243.651 C 286.811 243.843,286.233 244.000,285.736 244.000 C 283.713 244.000,282.017 245.291,282.057 246.800 C 282.094 248.176,282.099 248.180,282.347 247.032 C 282.620 245.773,284.379 244.479,285.886 244.429 C 286.870 244.397,288.604 243.717,292.200 241.954 C 295.152 240.507,295.632 240.505,297.286 241.940 C 299.282 243.670,303.641 246.800,304.055 246.800 C 304.615 246.800,312.000 239.390,312.000 238.828 C 312.000 238.194,309.456 234.355,308.406 233.405 C 307.963 233.004,307.600 232.462,307.600 232.200 C 307.600 231.938,307.227 231.386,306.770 230.973 C 306.242 230.495,306.004 229.891,306.115 229.311 C 306.331 228.182,305.749 228.102,305.396 229.212 M285.803 233.995 C 284.469 236.154,269.349 236.986,266.835 235.038 C 266.398 234.699,266.315 234.736,266.468 235.200 C 266.856 236.379,273.968 237.053,279.170 236.402 C 282.519 235.984,287.200 234.470,287.200 233.805 C 287.200 233.435,286.053 233.591,285.803 233.995 M267.460 245.635 C 267.714 245.946,268.022 247.190,268.146 248.400 C 268.270 249.610,268.546 251.680,268.759 253.000 L 269.147 255.400 268.958 252.400 C 268.652 247.556,268.257 245.483,267.600 245.267 C 267.127 245.112,267.098 245.190,267.460 245.635 M281.270 252.400 C 280.981 253.830,280.683 255.315,280.609 255.700 C 280.535 256.085,280.638 256.400,280.837 256.400 C 281.037 256.400,281.200 255.977,281.200 255.460 C 281.200 254.943,281.393 253.965,281.629 253.288 C 281.865 252.611,282.000 251.549,281.928 250.928 C 281.833 250.110,281.653 250.514,281.270 252.400 " stroke="none" fill="#279884" fill-rule="evenodd"></path></g></svg>